<svg xmlns="http://www.w3.org/2000/svg" width="823" height="336" viewBox="0 0 823 336">
<g>
<path d="M 70.08 261.07 C61.69,266.63 53.00,263.86 53.00,255.63 C53.00,251.70 53.62,250.94 71.28,233.03 C81.34,222.84 120.37,183.23 158.01,145.00 C240.46,61.27 243.39,58.03 246.58,57.75 C246.97,57.71 247.36,57.72 247.89,57.63 C252.22,56.94 264.03,58.41 267.02,60.01 C270.09,61.65 272.91,85.03 280.46,171.50 L 280.49 171.77 C283.68,208.33 284.24,214.76 283.09,220.85 C282.84,222.17 282.51,223.47 282.11,225.05 C280.97,229.56 278.90,235.73 277.50,238.78 C276.11,241.82 275.09,244.36 275.24,244.42 C275.51,244.54 308.74,210.94 403.54,114.72 C453.24,64.29 459.87,57.22 466.69,57.04 C467.80,57.01 468.90,57.16 470.20,57.34 C470.58,57.39 470.97,57.44 471.39,57.49 C478.64,58.41 482.87,59.89 483.94,61.88 C485.31,64.45 487.63,81.44 490.44,109.50 C494.34,148.44 499.00,205.24 499.00,213.78 C499.00,221.61 496.81,231.39 493.48,238.41 C492.52,240.42 491.95,242.28 492.20,242.53 C492.45,242.79 516.70,218.60 546.08,188.78 C575.46,158.96 616.66,117.24 637.63,96.05 L 675.76 57.54 L 683.13 57.64 C690.61,57.73 698.46,59.32 699.47,60.95 C702.60,66.01 716.00,206.25 714.57,219.00 C712.34,238.96 699.53,257.36 684.62,262.02 C678.66,263.89 665.48,262.84 660.00,260.06 C646.99,253.46 643.00,243.76 643.00,218.67 C643.00,199.52 641.61,188.87 638.22,182.00 L 635.50 176.50 L 625.50 175.70 C619.70,175.23 614.03,174.18 612.00,173.20 C608.76,171.63 608.48,171.12 608.20,166.44 C607.57,155.57 610.26,153.39 625.50,152.44 C644.12,151.28 652.94,154.78 659.78,166.08 C665.89,176.16 667.12,182.15 668.02,206.00 C669.01,232.29 670.31,237.62 676.25,239.86 C679.57,241.11 680.49,241.08 684.25,239.61 C693.30,236.07 694.52,231.17 691.98,208.53 C690.93,199.16 687.78,167.65 684.98,138.50 C682.19,109.35 679.69,84.49 679.43,83.25 C679.15,81.90 678.22,81.00 677.11,81.00 C676.00,81.00 666.51,90.13 653.46,103.75 C641.46,116.26 627.55,130.77 622.54,136.00 C617.54,141.23 603.77,155.62 591.96,168.00 C524.45,238.71 504.25,259.36 500.27,261.69 C492.91,266.00 484.00,263.34 484.00,256.85 C484.00,253.36 483.73,253.35 479.49,256.57 C465.62,267.16 442.47,264.37 433.66,251.06 C428.92,243.90 427.87,238.08 427.00,214.00 C426.15,190.58 424.99,183.68 421.08,178.85 C419.41,176.79 417.82,176.37 408.20,175.44 C394.85,174.14 392.00,172.70 392.01,167.23 C392.01,161.33 393.87,156.13 396.62,154.33 C398.63,153.01 401.94,152.67 413.32,152.59 C429.36,152.49 433.88,153.77 439.79,160.09 C448.60,169.52 451.77,180.98 452.49,206.00 C453.32,234.79 455.31,240.59 464.29,240.41 C470.20,240.28 474.36,237.24 476.58,231.43 C478.13,227.36 478.19,225.74 477.14,216.19 C475.87,204.62 469.41,140.03 465.97,104.53 C464.80,92.45 463.63,82.21 463.36,81.78 C462.06,79.68 458.74,81.65 452.48,88.25 C448.69,92.24 441.07,100.23 435.55,106.00 C430.02,111.78 420.58,121.68 414.57,128.00 C408.55,134.33 398.88,144.46 393.07,150.51 C378.85,165.33 365.70,179.08 339.53,206.50 C305.76,241.87 289.87,257.96 285.60,261.12 C281.21,264.36 276.55,264.85 272.07,262.54 C269.10,261.00 268.00,259.18 268.00,255.80 C268.00,253.87 267.88,253.84 265.75,255.38 C259.00,260.24 253.37,262.34 245.85,262.79 C234.83,263.45 228.06,261.14 221.34,254.45 C214.07,247.21 212.00,240.27 212.00,223.14 C212.00,207.30 210.44,190.51 208.45,184.87 C206.20,178.48 203.45,176.00 198.58,175.98 C192.22,175.95 181.19,174.14 178.99,172.76 C177.35,171.74 177.00,170.43 177.00,165.28 C177.00,159.85 177.37,158.62 179.80,155.89 L 182.61 152.76 L 197.12 152.63 C211.41,152.50 211.72,152.55 217.54,155.52 C224.96,159.31 229.63,165.67 233.46,177.21 C235.98,184.78 236.29,187.41 237.04,207.50 C238.09,235.49 239.17,239.07 247.00,240.45 C251.51,241.25 256.68,238.67 259.73,234.10 C262.58,229.84 262.62,225.97 260.06,202.38 C258.99,192.55 256.08,163.12 253.58,137.00 C248.60,84.92 248.08,80.84 246.28,80.25 C244.85,79.79 244.67,79.97 218.52,107.50 C207.56,119.05 193.39,133.91 187.04,140.52 C170.27,157.98 159.35,169.39 121.98,208.50 C103.59,227.75 85.38,246.79 81.52,250.82 C77.66,254.85 72.51,259.46 70.08,261.07 Z" fill="rgb(8,100,14)"/>
<path d="M 0.00 168.00 L 0.00 0.00 L 411.50 0.00 L 823.00 0.00 L 823.00 168.00 L 823.00 336.00 L 411.50 336.00 L 0.00 336.00 L 0.00 168.00 ZM 70.08 261.07 C72.51,259.46 77.66,254.85 81.52,250.82 C85.38,246.79 103.59,227.75 121.98,208.50 C159.35,169.39 170.27,157.98 187.04,140.52 C193.39,133.91 207.56,119.05 218.52,107.50 C244.67,79.97 244.85,79.79 246.28,80.25 C248.08,80.84 248.60,84.92 253.58,137.00 C256.08,163.12 258.99,192.55 260.06,202.38 C262.62,225.97 262.58,229.84 259.73,234.10 C256.68,238.67 251.51,241.25 247.00,240.45 C239.17,239.07 238.09,235.49 237.04,207.50 C236.29,187.41 235.98,184.78 233.46,177.21 C229.63,165.67 224.96,159.31 217.54,155.52 C211.72,152.55 211.41,152.50 197.12,152.63 L 182.61 152.76 L 179.80 155.89 C177.37,158.62 177.00,159.85 177.00,165.28 C177.00,170.43 177.35,171.74 178.99,172.76 C181.19,174.14 192.22,175.95 198.58,175.98 C203.45,176.00 206.20,178.48 208.45,184.87 C210.44,190.51 212.00,207.30 212.00,223.14 C212.00,240.27 214.07,247.21 221.34,254.45 C228.06,261.14 234.83,263.45 245.85,262.79 C253.37,262.34 259.00,260.24 265.75,255.38 C267.88,253.84 268.00,253.87 268.00,255.80 C268.00,259.18 269.10,261.00 272.07,262.54 C276.55,264.85 281.21,264.36 285.60,261.12 C289.87,257.96 305.76,241.87 339.53,206.50 C365.70,179.08 378.85,165.33 393.07,150.51 C398.88,144.46 408.55,134.33 414.57,128.00 C420.58,121.68 430.02,111.78 435.55,106.00 C441.07,100.23 448.69,92.24 452.48,88.25 C458.74,81.65 462.06,79.68 463.36,81.78 C463.63,82.21 464.80,92.45 465.97,104.53 C469.41,140.03 475.87,204.62 477.14,216.19 C478.19,225.74 478.13,227.36 476.58,231.43 C474.36,237.24 470.20,240.28 464.29,240.41 C455.31,240.59 453.32,234.79 452.49,206.00 C451.77,180.98 448.60,169.52 439.79,160.09 C433.88,153.77 429.36,152.49 413.32,152.59 C401.94,152.67 398.63,153.01 396.62,154.33 C393.87,156.13 392.01,161.33 392.01,167.23 C392.00,172.70 394.85,174.14 408.20,175.44 C417.82,176.37 419.41,176.79 421.08,178.85 C424.99,183.68 426.15,190.58 427.00,214.00 C427.87,238.08 428.92,243.90 433.66,251.06 C442.47,264.37 465.62,267.16 479.49,256.57 C483.73,253.35 484.00,253.36 484.00,256.85 C484.00,263.34 492.91,266.00 500.27,261.69 C504.25,259.36 524.45,238.71 591.96,168.00 C603.77,155.62 617.54,141.23 622.54,136.00 C627.55,130.77 641.46,116.26 653.46,103.75 C666.51,90.13 676.00,81.00 677.11,81.00 C678.22,81.00 679.15,81.90 679.43,83.25 C679.69,84.49 682.19,109.35 684.98,138.50 C687.78,167.65 690.93,199.16 691.98,208.53 C694.52,231.17 693.30,236.07 684.25,239.61 C680.49,241.08 679.57,241.11 676.25,239.86 C670.31,237.62 669.01,232.29 668.02,206.00 C667.12,182.15 665.89,176.16 659.78,166.08 C652.94,154.78 644.12,151.28 625.50,152.44 C610.26,153.39 607.57,155.57 608.20,166.44 C608.48,171.12 608.76,171.63 612.00,173.20 C614.03,174.18 619.70,175.23 625.50,175.70 L 635.50 176.50 L 638.22 182.00 C641.61,188.87 643.00,199.52 643.00,218.67 C643.00,243.76 646.99,253.46 660.00,260.06 C665.48,262.84 678.66,263.89 684.62,262.02 C699.53,257.36 712.34,238.96 714.57,219.00 C716.00,206.25 702.60,66.01 699.47,60.95 C698.46,59.32 690.61,57.73 683.13,57.64 L 675.76 57.54 L 637.63 96.05 C616.66,117.24 575.46,158.96 546.08,188.78 C516.70,218.60 492.45,242.79 492.20,242.53 C491.95,242.28 492.52,240.42 493.48,238.41 C496.81,231.39 499.00,221.61 499.00,213.78 C499.00,205.24 494.34,148.44 490.44,109.50 C487.63,81.44 485.31,64.45 483.94,61.88 C482.87,59.89 478.64,58.41 471.39,57.49 C460.77,56.16 463.62,53.74 403.54,114.72 C308.74,210.94 275.51,244.54 275.24,244.42 C275.09,244.36 276.11,241.82 277.50,238.78 C278.90,235.73 280.97,229.56 282.11,225.05 C284.37,216.11 284.37,216.22 280.46,171.50 C272.91,85.03 270.09,61.65 267.02,60.01 C264.03,58.41 252.22,56.94 247.89,57.63 C242.94,58.43 250.41,51.17 158.01,145.00 C120.37,183.23 81.34,222.84 71.28,233.03 C53.62,250.94 53.00,251.70 53.00,255.63 C53.00,263.86 61.69,266.63 70.08,261.07 Z" fill="rgb(254,254,254)"/>
</g>
</svg>