<svg xmlns="http://www.w3.org/2000/svg" width="1020" height="567" viewBox="0 0 1020 567">
<g>
<path d="M 0.00 0.00 L 1020.00 0.00 L 1020.00 567.00 L 0.00 567.00 ZM 147.58 303.68 C149.59,305.15 150.19,305.25 152.31,304.43 C153.12,304.12 170.31,286.57 190.50,265.43 C210.70,244.30 227.61,227.00 228.09,227.00 C228.57,227.00 229.18,228.01 229.45,229.25 C230.12,232.30 235.01,284.68 235.00,288.73 C235.00,294.59 226.68,297.19 225.56,291.68 C225.32,290.48 224.91,285.15 224.65,279.84 C224.13,269.43 222.07,263.09 218.04,259.50 C216.22,257.88 214.37,257.50 208.36,257.50 C200.30,257.50 199.04,258.26 199.02,263.14 C199.00,266.17 200.51,267.00 206.06,267.00 C211.91,267.00 213.09,269.52 213.93,283.76 C214.65,296.18 215.41,298.60 219.60,301.90 C223.67,305.10 228.31,305.55 233.07,303.19 C237.11,301.20 237.20,301.20 239.08,303.08 C240.14,304.14 241.75,305.00 242.68,305.00 C244.51,305.00 247.50,302.03 281.50,266.50 C319.57,226.71 319.92,226.37 320.84,227.79 C321.60,228.97 322.88,240.91 326.22,277.87 L 327.43 291.24 L 325.10 293.12 C319.45,297.70 317.41,294.49 316.66,279.84 C316.10,268.84 313.78,262.21 309.50,259.41 C306.24,257.27 297.52,256.43 293.75,257.89 C291.49,258.76 291.00,259.56 291.00,262.37 C291.00,266.24 292.16,267.00 298.06,267.00 C303.90,267.00 304.94,269.31 305.92,284.46 C306.70,296.48 306.89,297.27 309.58,300.08 C313.83,304.52 318.86,305.71 324.41,303.59 C328.57,302.00 329.06,301.99 331.39,303.52 C332.77,304.43 334.76,304.89 335.80,304.56 C336.84,304.23 354.24,286.64 374.46,265.48 C394.68,244.32 411.61,227.00 412.09,227.00 C412.57,227.00 413.18,228.01 413.45,229.25 C414.12,232.30 419.01,284.68 419.00,288.73 C419.00,294.59 410.68,297.19 409.56,291.68 C409.32,290.48 408.91,285.15 408.65,279.84 C408.13,269.43 406.07,263.09 402.04,259.50 C400.22,257.88 398.37,257.50 392.36,257.50 C384.30,257.50 383.04,258.26 383.02,263.14 C383.00,266.17 384.51,267.00 390.06,267.00 C395.87,267.00 396.97,269.37 397.88,283.93 C398.73,297.56 399.85,300.12 406.36,303.35 C411.85,306.08 416.46,304.91 421.70,299.44 C428.74,292.11 429.17,289.11 426.95,263.34 C424.36,233.23 422.93,220.81 421.85,218.75 C421.17,217.45 419.68,217.00 416.13,217.00 L 411.34 217.00 L 373.04 256.04 C351.98,277.51 334.61,294.95 334.45,294.79 C334.29,294.63 334.74,292.25 335.45,289.50 C336.54,285.28 336.46,281.14 334.93,263.00 C332.50,234.22 330.96,220.86 329.85,218.75 C329.17,217.46 327.68,217.00 324.14,217.00 L 319.36 217.00 L 281.05 256.04 C259.98,277.51 242.59,294.93 242.41,294.74 C242.22,294.56 242.69,292.36 243.45,289.85 C244.64,285.89 244.57,282.34 242.92,262.90 C240.45,233.70 238.98,220.91 237.85,218.75 C237.17,217.46 235.69,217.00 232.16,217.00 L 227.39 217.00 L 186.94 258.14 C164.70,280.77 146.34,299.98 146.14,300.83 C145.94,301.67 146.59,302.96 147.58,303.68 ZM 679.99 312.13 C681.37,312.58 685.36,312.75 688.87,312.50 C697.09,311.92 703.15,308.51 706.25,302.71 C708.37,298.75 708.52,297.12 708.82,275.25 L 709.13 252.00 L 702.57 252.00 C697.46,252.00 696.00,252.33 696.00,253.47 C696.00,254.64 695.29,254.51 692.47,252.85 C687.19,249.74 678.35,250.55 673.34,254.62 C661.19,264.45 662.79,285.67 676.21,292.61 C680.06,294.60 688.11,294.59 692.12,292.59 C695.98,290.67 696.39,290.95 695.52,294.92 C694.72,298.53 690.71,302.00 687.32,302.00 C684.38,302.00 679.34,299.51 678.76,297.78 C678.20,296.09 667.00,299.55 667.00,301.42 C667.00,304.80 673.16,309.88 679.99,312.13 ZM 454.99 312.13 C460.05,313.78 469.79,312.42 474.71,309.36 C482.89,304.28 483.45,302.19 483.82,275.25 L 484.13 252.00 L 477.57 252.00 C472.46,252.00 471.00,252.33 471.00,253.47 C471.00,254.64 470.29,254.51 467.47,252.85 C462.39,249.85 453.58,250.56 448.59,254.36 C443.03,258.61 440.56,264.18 440.56,272.50 C440.56,280.06 442.64,285.49 447.15,289.68 C452.05,294.24 461.16,295.56 467.14,292.58 C468.89,291.71 470.52,291.19 470.76,291.42 C471.87,292.53 469.58,298.19 467.29,299.99 C463.77,302.75 459.77,302.52 455.98,299.33 L 452.80 296.65 L 447.40 298.49 C444.43,299.50 442.00,300.87 442.00,301.53 C442.00,304.81 448.27,309.92 454.99,312.13 ZM 844.18 294.48 C848.12,296.19 855.75,296.42 859.68,294.94 C869.20,291.38 874.40,283.79 874.34,273.55 C874.27,259.48 866.08,251.04 852.50,251.04 C838.20,251.04 828.85,261.40 830.30,275.62 C831.25,284.88 835.56,290.74 844.18,294.48 ZM 535.44 294.17 C541.79,297.13 551.63,296.34 557.21,292.43 C571.50,282.39 569.50,259.11 553.78,252.55 C545.34,249.03 532.98,251.67 527.52,258.16 C525.10,261.03 522.00,269.51 522.00,273.24 C522.00,281.23 528.10,290.74 535.44,294.17 ZM 726.93 293.25 C738.71,299.22 751.78,294.99 757.10,283.50 C759.85,277.57 759.65,267.55 756.67,261.91 C753.23,255.39 747.70,251.91 739.76,251.27 C731.81,250.63 727.02,252.08 721.93,256.68 C716.80,261.32 714.65,267.20 715.16,275.23 C715.71,283.76 719.42,289.45 726.93,293.25 ZM 634.99 295.07 C643.47,297.64 655.48,293.77 659.30,287.22 L 661.18 284.01 L 656.51 282.00 C651.37,279.80 648.00,279.42 648.00,281.05 C648.00,281.63 646.45,282.75 644.55,283.54 C640.81,285.11 637.13,284.34 633.75,281.28 C629.64,277.55 631.29,277.00 646.50,277.00 L 661.00 277.00 L 661.00 272.63 C661.00,258.83 651.79,250.20 638.12,251.18 C626.62,252.02 619.00,260.80 619.00,273.23 C619.00,284.50 624.37,291.83 634.99,295.07 ZM 573.71 294.38 C574.10,294.77 576.91,294.96 579.96,294.79 L 585.50 294.50 L 586.00 280.66 C586.47,267.62 586.64,266.71 588.86,264.91 C591.76,262.56 596.29,262.44 598.13,264.65 C599.09,265.80 599.65,270.54 600.00,280.40 L 600.50 294.50 L 612.50 294.50 L 612.50 277.42 C612.50,260.85 612.43,260.24 610.00,256.69 C608.62,254.69 606.26,252.53 604.74,251.89 C600.78,250.25 592.43,251.30 588.94,253.89 C586.03,256.04 586.00,256.04 586.00,254.03 C586.00,252.20 585.37,252.00 579.50,252.00 L 573.00 252.00 L 573.00 272.83 C573.00,284.29 573.32,293.99 573.71,294.38 ZM 778.95 295.05 C788.70,298.02 800.50,293.73 804.64,285.73 C806.52,282.09 805.82,281.25 798.99,279.00 C795.03,277.69 794.80,277.73 792.41,280.31 C788.98,284.01 785.74,284.62 781.77,282.30 C775.41,278.60 774.40,270.51 779.64,265.27 C781.75,263.15 782.80,262.84 786.22,263.30 C790.03,263.81 790.72,264.29 792.91,267.91 C793.63,269.10 794.67,268.96 799.38,267.05 C802.47,265.79 805.00,264.21 805.00,263.53 C805.00,261.27 800.54,255.63 797.20,253.69 C792.45,250.91 782.17,250.28 776.57,252.42 C767.58,255.85 762.24,265.20 763.30,275.62 C764.28,285.16 770.08,292.36 778.95,295.05 ZM 492.67 294.33 C493.03,294.70 495.96,295.00 499.17,295.00 L 505.00 295.00 L 505.01 285.25 C505.01,274.63 506.14,268.96 508.65,266.87 C509.54,266.13 512.57,265.45 515.39,265.36 L 520.50 265.19 L 521.09 251.00 L 516.58 251.00 C512.96,251.00 511.37,251.61 508.53,254.10 L 505.00 257.21 L 505.00 254.60 C505.00,252.07 504.84,252.00 498.50,252.00 L 492.00 252.00 L 492.00 272.83 C492.00,284.29 492.30,293.97 492.67,294.33 ZM 811.71 294.38 C812.10,294.77 814.91,294.96 817.96,294.79 L 823.50 294.50 L 824.04 252.00 L 811.00 252.00 L 811.00 272.83 C811.00,284.29 811.32,293.99 811.71,294.38 ZM 551.50 332.50 L 550.93 353.00 L 557.72 352.97 C566.99,352.92 570.00,350.23 570.00,341.99 C570.00,338.73 569.37,337.21 567.03,334.87 C564.28,332.12 563.60,331.92 557.78,332.20 ZM 740.39 283.04 C737.47,284.15 737.18,284.15 734.50,283.05 C730.47,281.40 728.50,278.05 728.50,272.81 C728.50,268.59 728.93,267.46 731.31,265.41 C734.36,262.79 737.54,262.38 741.34,264.11 C747.89,267.10 747.22,280.44 740.39,283.04 ZM 858.08 281.08 C853.61,285.54 848.31,284.41 844.70,278.22 C839.98,270.14 847.88,260.33 856.46,263.62 C858.89,264.56 861.00,269.39 861.00,274.03 C861.00,277.25 860.36,278.79 858.08,281.08 ZM 549.81 281.51 C543.41,286.89 536.00,282.12 536.00,272.62 C536.00,268.89 536.49,267.76 539.08,265.59 C544.27,261.22 550.07,262.53 552.62,268.63 C554.61,273.39 553.52,278.39 549.81,281.51 ZM 691.46 281.38 C689.05,282.30 684.74,282.08 682.75,280.92 C679.84,279.22 677.75,274.13 678.45,270.42 C680.40,260.02 696.00,260.98 696.00,271.50 C696.00,275.68 693.79,280.48 691.46,281.38 ZM 467.90 280.25 C463.18,284.14 455.83,281.39 454.01,275.05 C450.80,263.86 467.01,257.95 470.62,269.00 C471.98,273.18 470.87,277.81 467.90,280.25 ZM 515.00 342.50 C515.00,352.25 515.14,353.00 516.95,353.00 C518.67,353.00 518.94,352.18 519.20,346.31 L 519.50 339.62 L 524.40 346.31 C527.38,350.37 530.03,353.00 531.15,353.00 C532.83,353.00 533.00,352.04 533.00,342.50 C533.00,332.67 532.87,332.00 531.00,332.00 C529.24,332.00 529.00,332.67 529.00,337.50 C529.00,340.52 528.57,343.00 528.04,343.00 C527.52,343.00 525.38,340.54 523.29,337.54 C520.64,333.72 518.82,332.06 517.25,332.04 C515.06,332.00 515.00,332.27 515.00,342.50 ZM 587.60 346.25 C585.04,352.93 585.04,353.00 587.10,353.00 C588.35,353.00 589.40,352.19 589.71,351.00 C590.15,349.32 591.07,349.00 595.55,349.00 C599.99,349.00 600.97,349.33 601.50,351.00 C602.08,352.83 606.00,353.95 606.00,352.28 C606.00,351.88 604.31,347.13 602.25,341.73 C598.61,332.21 598.41,331.92 595.59,332.21 C593.29,332.44 592.43,333.23 591.44,336.00 C590.75,337.92 589.03,342.54 587.60,346.25 ZM 410.00 352.18 C410.00,353.92 413.90,352.90 414.50,351.00 C415.02,349.36 416.01,349.00 420.03,349.00 C423.91,349.00 425.15,349.42 426.00,351.00 C426.59,352.10 427.95,353.00 429.04,353.00 C430.12,353.00 431.00,352.89 430.99,352.75 C430.99,352.61 429.24,348.00 427.11,342.50 C423.48,333.15 423.04,332.50 420.43,332.50 C417.85,332.50 417.36,333.19 413.82,341.93 C411.72,347.11 410.00,351.73 410.00,352.18 ZM 626.00 352.25 C630.13,354.31 630.70,354.35 634.92,352.88 C639.03,351.44 640.67,347.67 638.56,344.46 C637.74,343.20 634.83,341.44 632.05,340.52 C626.10,338.54 625.19,337.50 628.07,335.97 C630.37,334.73 635.00,335.44 635.00,337.02 C635.00,337.56 635.90,338.00 637.00,338.00 C639.43,338.00 639.57,336.29 637.35,333.83 C634.96,331.19 626.70,331.30 624.00,334.00 C620.30,337.70 622.32,341.24 629.66,343.86 C633.20,345.13 634.50,346.12 634.50,347.55 C634.50,350.09 628.94,350.84 627.04,348.55 C626.33,347.70 624.88,347.00 623.80,347.00 C620.68,347.00 622.05,350.27 626.00,352.25 ZM 481.00 332.00 L 481.00 353.00 L 489.00 353.00 C495.44,353.00 497.00,352.71 497.00,351.50 C497.00,350.33 495.67,350.00 491.00,350.00 L 485.00 350.00 L 485.00 347.00 C485.00,344.03 485.06,344.00 490.50,344.00 C494.72,344.00 496.00,343.65 496.00,342.50 C496.00,341.35 494.72,341.00 490.50,341.00 C485.33,341.00 485.00,340.85 485.00,338.55 C485.00,336.27 485.40,336.08 490.74,335.80 C495.27,335.56 496.55,335.13 496.81,333.75 C497.11,332.20 496.22,332.00 489.07,332.00 ZM 446.00 352.16 C446.00,352.62 449.98,353.00 454.83,353.00 C462.02,353.00 463.67,352.72 463.67,351.50 C463.67,350.35 462.40,350.00 458.23,350.00 C451.81,350.00 451.81,349.93 458.49,340.56 C460.97,337.09 463.00,333.74 463.00,333.12 C463.00,332.39 460.25,332.00 455.00,332.00 C447.67,332.00 447.00,332.17 447.00,334.00 C447.00,335.70 447.67,336.00 451.50,336.00 C453.98,336.00 456.00,336.24 456.00,336.54 C456.00,336.83 453.75,340.28 451.00,344.19 C448.25,348.11 446.00,351.69 446.00,352.16 ZM 734.69 240.01 L 730.88 247.00 L 736.29 247.00 C741.63,247.00 741.76,246.93 746.67,241.25 C746.97,240.90 747.26,240.56 747.54,240.24 C750.94,236.31 752.50,234.50 752.09,233.68 C751.75,232.99 750.00,233.00 746.79,233.00 C746.47,233.01 746.15,233.01 745.81,233.01 L 738.50 233.01 ZM 812.65 244.55 C816.18,247.82 820.27,247.75 822.93,244.37 C827.25,238.87 824.26,232.60 817.32,232.60 C810.52,232.60 807.65,239.92 812.65,244.55 ZM 381.00 342.50 C381.00,352.33 381.13,353.00 383.00,353.00 C384.66,353.00 385.00,352.33 385.00,349.05 L 385.00 345.11 L 389.74 344.80 C393.31,344.58 394.56,344.07 394.81,342.75 C395.10,341.27 394.36,341.00 390.07,341.00 C385.33,341.00 385.00,340.84 385.00,338.50 C385.00,336.14 385.30,336.00 390.50,336.00 C395.33,336.00 396.00,335.76 396.00,334.00 C396.00,332.18 395.33,332.00 388.50,332.00 L 381.00 332.00 ZM 564.00 348.00 C562.89,349.11 560.67,350.00 559.00,350.00 L 556.00 350.00 L 556.00 336.00 L 559.96 336.00 C562.86,336.00 564.21,336.52 564.96,337.93 C566.63,341.05 566.17,345.83 564.00,348.00 ZM 647.73 267.31 C647.23,268.83 633.43,269.50 632.53,268.05 C631.32,266.09 636.67,262.00 640.45,262.00 C644.18,262.00 648.46,265.12 647.73,267.31 ZM 598.43 345.11 C597.75,346.21 593.30,346.29 592.63,345.21 C592.37,344.78 592.95,342.64 593.93,340.46 L 595.70 336.50 L 597.35 340.36 C598.25,342.48 598.74,344.61 598.43,345.11 ZM 423.31 345.25 C422.69,346.33 418.23,346.17 417.53,345.04 C417.20,344.52 417.67,342.38 418.58,340.29 L 420.21 336.50 L 421.98 340.50 C422.95,342.70 423.55,344.84 423.31,345.25 Z" fill="rgb(6,101,12)"/>
<path d="M 626.00 352.25 C622.05,350.27 620.68,347.00 623.80,347.00 C624.88,347.00 626.33,347.70 627.04,348.55 C628.94,350.84 634.50,350.09 634.50,347.55 C634.50,346.12 633.20,345.13 629.66,343.86 C622.32,341.24 620.30,337.70 624.00,334.00 C626.70,331.30 634.96,331.19 637.35,333.83 C639.57,336.29 639.43,338.00 637.00,338.00 C635.90,338.00 635.00,337.56 635.00,337.02 C635.00,335.44 630.37,334.73 628.07,335.97 C625.19,337.50 626.10,338.54 632.05,340.52 C634.83,341.44 637.74,343.20 638.56,344.46 C640.67,347.67 639.03,351.44 634.92,352.88 C630.70,354.35 630.13,354.31 626.00,352.25 ZM 381.00 342.50 L 381.00 332.00 L 388.50 332.00 C395.33,332.00 396.00,332.18 396.00,334.00 C396.00,335.76 395.33,336.00 390.50,336.00 C385.30,336.00 385.00,336.14 385.00,338.50 C385.00,340.84 385.33,341.00 390.07,341.00 C394.36,341.00 395.10,341.27 394.81,342.75 C394.56,344.07 393.31,344.58 389.74,344.80 L 385.00 345.11 L 385.00 349.05 C385.00,352.33 384.66,353.00 383.00,353.00 C381.13,353.00 381.00,352.33 381.00,342.50 ZM 410.00 352.18 C410.00,351.73 411.72,347.11 413.82,341.93 C417.36,333.19 417.85,332.50 420.43,332.50 C423.04,332.50 423.48,333.15 427.11,342.50 C429.24,348.00 430.99,352.61 430.99,352.75 C431.00,352.89 430.12,353.00 429.04,353.00 C427.95,353.00 426.59,352.10 426.00,351.00 C425.15,349.42 423.91,349.00 420.03,349.00 C416.01,349.00 415.02,349.36 414.50,351.00 C413.90,352.90 410.00,353.92 410.00,352.18 ZM 423.31 345.25 C423.55,344.84 422.95,342.70 421.98,340.50 L 420.21 336.50 L 418.58 340.29 C417.67,342.38 417.20,344.52 417.53,345.04 C418.23,346.17 422.69,346.33 423.31,345.25 ZM 446.00 352.16 C446.00,351.69 448.25,348.11 451.00,344.19 C453.75,340.28 456.00,336.83 456.00,336.54 C456.00,336.24 453.98,336.00 451.50,336.00 C447.67,336.00 447.00,335.70 447.00,334.00 C447.00,332.17 447.67,332.00 455.00,332.00 C460.25,332.00 463.00,332.39 463.00,333.12 C463.00,333.74 460.97,337.09 458.49,340.56 C451.81,349.93 451.81,350.00 458.23,350.00 C462.40,350.00 463.67,350.35 463.67,351.50 C463.67,352.72 462.02,353.00 454.83,353.00 C449.98,353.00 446.00,352.62 446.00,352.16 ZM 481.00 342.50 L 481.00 332.00 L 489.07 332.00 C496.22,332.00 497.11,332.20 496.81,333.75 C496.55,335.13 495.27,335.56 490.74,335.80 C485.40,336.08 485.00,336.27 485.00,338.55 C485.00,340.85 485.33,341.00 490.50,341.00 C494.72,341.00 496.00,341.35 496.00,342.50 C496.00,343.65 494.72,344.00 490.50,344.00 C485.06,344.00 485.00,344.03 485.00,347.00 L 485.00 350.00 L 491.00 350.00 C495.67,350.00 497.00,350.33 497.00,351.50 C497.00,352.71 495.44,353.00 489.00,353.00 L 481.00 353.00 L 481.00 342.50 ZM 515.00 342.50 C515.00,332.27 515.06,332.00 517.25,332.04 C518.82,332.06 520.64,333.72 523.29,337.54 C525.38,340.54 527.52,343.00 528.04,343.00 C528.57,343.00 529.00,340.52 529.00,337.50 C529.00,332.67 529.24,332.00 531.00,332.00 C532.87,332.00 533.00,332.67 533.00,342.50 C533.00,352.04 532.83,353.00 531.15,353.00 C530.03,353.00 527.38,350.37 524.40,346.31 L 519.50 339.62 L 519.20 346.31 C518.94,352.18 518.67,353.00 516.95,353.00 C515.14,353.00 515.00,352.25 515.00,342.50 ZM 551.22 342.75 L 551.50 332.50 L 557.78 332.20 C563.60,331.92 564.28,332.12 567.03,334.87 C569.37,337.21 570.00,338.73 570.00,341.99 C570.00,350.23 566.99,352.92 557.72,352.97 L 550.93 353.00 L 551.22 342.75 ZM 564.00 348.00 C566.17,345.83 566.63,341.05 564.96,337.93 C564.21,336.52 562.86,336.00 559.96,336.00 L 556.00 336.00 L 556.00 343.00 L 556.00 350.00 L 559.00 350.00 C560.67,350.00 562.89,349.11 564.00,348.00 ZM 587.60 346.25 C589.03,342.54 590.75,337.92 591.44,336.00 C592.43,333.23 593.29,332.44 595.59,332.21 C598.41,331.92 598.61,332.21 602.25,341.73 C604.31,347.13 606.00,351.88 606.00,352.28 C606.00,353.95 602.08,352.83 601.50,351.00 C600.97,349.33 599.99,349.00 595.55,349.00 C591.07,349.00 590.15,349.32 589.71,351.00 C589.40,352.19 588.35,353.00 587.10,353.00 C585.04,353.00 585.04,352.93 587.60,346.25 ZM 598.43 345.11 C598.74,344.61 598.25,342.48 597.35,340.36 L 595.70 336.50 L 593.93 340.46 C592.95,342.64 592.37,344.78 592.63,345.21 C593.30,346.29 597.75,346.21 598.43,345.11 ZM 454.99 312.13 C448.27,309.92 442.00,304.81 442.00,301.53 C442.00,300.87 444.43,299.50 447.40,298.49 L 452.80 296.65 L 455.98 299.33 C459.77,302.52 463.77,302.75 467.29,299.99 C469.58,298.19 471.87,292.53 470.76,291.42 C470.52,291.19 468.89,291.71 467.14,292.58 C461.16,295.56 452.05,294.24 447.15,289.68 C442.64,285.49 440.56,280.06 440.56,272.50 C440.56,264.18 443.03,258.61 448.59,254.36 C453.58,250.56 462.39,249.85 467.47,252.85 C470.29,254.51 471.00,254.64 471.00,253.47 C471.00,252.33 472.46,252.00 477.57,252.00 L 484.13 252.00 L 483.82 275.25 C483.45,302.19 482.89,304.28 474.71,309.36 C469.79,312.42 460.05,313.78 454.99,312.13 ZM 467.90 280.25 C470.87,277.81 471.98,273.18 470.62,269.00 C467.01,257.95 450.80,263.86 454.01,275.05 C455.83,281.39 463.18,284.14 467.90,280.25 ZM 679.99 312.13 C673.16,309.88 667.00,304.80 667.00,301.42 C667.00,299.55 678.20,296.09 678.76,297.78 C679.34,299.51 684.38,302.00 687.32,302.00 C690.71,302.00 694.72,298.53 695.52,294.92 C696.39,290.95 695.98,290.67 692.12,292.59 C688.11,294.59 680.06,294.60 676.21,292.61 C662.79,285.67 661.19,264.45 673.34,254.62 C678.35,250.55 687.19,249.74 692.47,252.85 C695.29,254.51 696.00,254.64 696.00,253.47 C696.00,252.33 697.46,252.00 702.57,252.00 L 709.13 252.00 L 708.82 275.25 C708.52,297.12 708.37,298.75 706.25,302.71 C703.15,308.51 697.09,311.92 688.87,312.50 C685.36,312.75 681.37,312.58 679.99,312.13 ZM 691.46 281.38 C693.79,280.48 696.00,275.68 696.00,271.50 C696.00,260.98 680.40,260.02 678.45,270.42 C677.75,274.13 679.84,279.22 682.75,280.92 C684.74,282.08 689.05,282.30 691.46,281.38 ZM 147.58 303.68 C146.59,302.96 145.94,301.67 146.14,300.83 C146.34,299.98 164.70,280.77 186.94,258.14 L 227.39 217.00 L 232.16 217.00 C235.69,217.00 237.17,217.46 237.85,218.75 C238.98,220.91 240.45,233.70 242.92,262.90 C244.57,282.34 244.64,285.89 243.45,289.85 C242.69,292.36 242.22,294.56 242.41,294.74 C242.59,294.93 259.98,277.51 281.05,256.04 L 319.36 217.00 L 324.14 217.00 C327.68,217.00 329.17,217.46 329.85,218.75 C330.96,220.86 332.50,234.22 334.93,263.00 C336.46,281.14 336.54,285.28 335.45,289.50 C334.74,292.25 334.29,294.63 334.45,294.79 C334.61,294.95 351.98,277.51 373.04,256.04 L 411.34 217.00 L 416.13 217.00 C419.68,217.00 421.17,217.45 421.85,218.75 C422.93,220.81 424.36,233.23 426.95,263.34 C429.17,289.11 428.74,292.11 421.70,299.44 C416.46,304.91 411.85,306.08 406.36,303.35 C399.85,300.12 398.73,297.56 397.88,283.93 C396.97,269.37 395.87,267.00 390.06,267.00 C384.51,267.00 383.00,266.17 383.02,263.14 C383.04,258.26 384.30,257.50 392.36,257.50 C398.37,257.50 400.22,257.88 402.04,259.50 C406.07,263.09 408.13,269.43 408.65,279.84 C408.91,285.15 409.32,290.48 409.56,291.68 C410.68,297.19 419.00,294.59 419.00,288.73 C419.01,284.68 414.12,232.30 413.45,229.25 C413.18,228.01 412.57,227.00 412.09,227.00 C411.61,227.00 394.68,244.32 374.46,265.48 C354.24,286.64 336.84,304.23 335.80,304.56 C334.76,304.89 332.77,304.43 331.39,303.52 C329.06,301.99 328.57,302.00 324.41,303.59 C318.86,305.71 313.83,304.52 309.58,300.08 C306.89,297.27 306.70,296.48 305.92,284.46 C304.94,269.31 303.90,267.00 298.06,267.00 C292.16,267.00 291.00,266.24 291.00,262.37 C291.00,259.56 291.49,258.76 293.75,257.89 C297.52,256.43 306.24,257.27 309.50,259.41 C313.78,262.21 316.10,268.84 316.66,279.84 C317.41,294.49 319.45,297.70 325.10,293.12 L 327.43 291.24 L 326.22 277.87 C322.88,240.91 321.60,228.97 320.84,227.79 C319.92,226.37 319.57,226.71 281.50,266.50 C247.50,302.03 244.51,305.00 242.68,305.00 C241.75,305.00 240.14,304.14 239.08,303.08 C237.20,301.20 237.11,301.20 233.07,303.19 C228.31,305.55 223.67,305.10 219.60,301.90 C215.41,298.60 214.65,296.18 213.93,283.76 C213.09,269.52 211.91,267.00 206.06,267.00 C200.51,267.00 199.00,266.17 199.02,263.14 C199.04,258.26 200.30,257.50 208.36,257.50 C214.37,257.50 216.22,257.88 218.04,259.50 C222.07,263.09 224.13,269.43 224.65,279.84 C224.91,285.15 225.32,290.48 225.56,291.68 C226.68,297.19 235.00,294.59 235.00,288.73 C235.01,284.68 230.12,232.30 229.45,229.25 C229.18,228.01 228.57,227.00 228.09,227.00 C227.61,227.00 210.70,244.30 190.50,265.43 C170.31,286.57 153.12,304.12 152.31,304.43 C150.19,305.25 149.59,305.15 147.58,303.68 ZM 535.44 294.17 C528.10,290.74 522.00,281.23 522.00,273.24 C522.00,269.51 525.10,261.03 527.52,258.16 C532.98,251.67 545.34,249.03 553.78,252.55 C569.50,259.11 571.50,282.39 557.21,292.43 C551.63,296.34 541.79,297.13 535.44,294.17 ZM 549.81 281.51 C553.52,278.39 554.61,273.39 552.62,268.63 C550.07,262.53 544.27,261.22 539.08,265.59 C536.49,267.76 536.00,268.89 536.00,272.62 C536.00,282.12 543.41,286.89 549.81,281.51 ZM 634.99 295.07 C624.37,291.83 619.00,284.50 619.00,273.23 C619.00,260.80 626.62,252.02 638.12,251.18 C651.79,250.20 661.00,258.83 661.00,272.63 L 661.00 277.00 L 646.50 277.00 C631.29,277.00 629.64,277.55 633.75,281.28 C637.13,284.34 640.81,285.11 644.55,283.54 C646.45,282.75 648.00,281.63 648.00,281.05 C648.00,279.42 651.37,279.80 656.51,282.00 L 661.18 284.01 L 659.30 287.22 C655.48,293.77 643.47,297.64 634.99,295.07 ZM 647.73 267.31 C648.46,265.12 644.18,262.00 640.45,262.00 C636.67,262.00 631.32,266.09 632.53,268.05 C633.43,269.50 647.23,268.83 647.73,267.31 ZM 726.93 293.25 C719.42,289.45 715.71,283.76 715.16,275.23 C714.65,267.20 716.80,261.32 721.93,256.68 C727.02,252.08 731.81,250.63 739.76,251.27 C747.70,251.91 753.23,255.39 756.67,261.91 C759.65,267.55 759.85,277.57 757.10,283.50 C751.78,294.99 738.71,299.22 726.93,293.25 ZM 740.39 283.04 C747.22,280.44 747.89,267.10 741.34,264.11 C737.54,262.38 734.36,262.79 731.31,265.41 C728.93,267.46 728.50,268.59 728.50,272.81 C728.50,278.05 730.47,281.40 734.50,283.05 C737.18,284.15 737.47,284.15 740.39,283.04 ZM 778.95 295.05 C770.08,292.36 764.28,285.16 763.30,275.62 C762.24,265.20 767.58,255.85 776.57,252.42 C782.17,250.28 792.45,250.91 797.20,253.69 C800.54,255.63 805.00,261.27 805.00,263.53 C805.00,264.21 802.47,265.79 799.38,267.05 C794.67,268.96 793.63,269.10 792.91,267.91 C790.72,264.29 790.03,263.81 786.22,263.30 C782.80,262.84 781.75,263.15 779.64,265.27 C774.40,270.51 775.41,278.60 781.77,282.30 C785.74,284.62 788.98,284.01 792.41,280.31 C794.80,277.73 795.03,277.69 798.99,279.00 C805.82,281.25 806.52,282.09 804.64,285.73 C800.50,293.73 788.70,298.02 778.95,295.05 ZM 844.18 294.48 C835.56,290.74 831.25,284.88 830.30,275.62 C828.85,261.40 838.20,251.04 852.50,251.04 C866.08,251.04 874.27,259.48 874.34,273.55 C874.40,283.79 869.20,291.38 859.68,294.94 C855.75,296.42 848.12,296.19 844.18,294.48 ZM 858.08 281.08 C860.36,278.79 861.00,277.25 861.00,274.03 C861.00,269.39 858.89,264.56 856.46,263.62 C847.88,260.33 839.98,270.14 844.70,278.22 C848.31,284.41 853.61,285.54 858.08,281.08 ZM 492.67 294.33 C492.30,293.97 492.00,284.29 492.00,272.83 L 492.00 252.00 L 498.50 252.00 C504.84,252.00 505.00,252.07 505.00,254.60 L 505.00 257.21 L 508.53 254.10 C511.37,251.61 512.96,251.00 516.58,251.00 L 521.09 251.00 L 520.79 258.10 L 520.50 265.19 L 515.39 265.36 C512.57,265.45 509.54,266.13 508.65,266.87 C506.14,268.96 505.01,274.63 505.01,285.25 L 505.00 295.00 L 499.17 295.00 C495.96,295.00 493.03,294.70 492.67,294.33 ZM 573.71 294.38 C573.32,293.99 573.00,284.29 573.00,272.83 L 573.00 252.00 L 579.50 252.00 C585.37,252.00 586.00,252.20 586.00,254.03 C586.00,256.04 586.03,256.04 588.94,253.89 C592.43,251.30 600.78,250.25 604.74,251.89 C606.26,252.53 608.62,254.69 610.00,256.69 C612.43,260.24 612.50,260.85 612.50,277.42 L 612.50 294.50 L 606.50 294.50 L 600.50 294.50 L 600.00 280.40 C599.65,270.54 599.09,265.80 598.13,264.65 C596.29,262.44 591.76,262.56 588.86,264.91 C586.64,266.71 586.47,267.62 586.00,280.66 L 585.50 294.50 L 579.96 294.79 C576.91,294.96 574.10,294.77 573.71,294.38 ZM 811.71 294.38 C811.32,293.99 811.00,284.29 811.00,272.83 L 811.00 252.00 L 817.52 252.00 L 824.04 252.00 L 823.77 273.25 L 823.50 294.50 L 817.96 294.79 C814.91,294.96 812.10,294.77 811.71,294.38 ZM 734.69 240.01 L 738.50 233.01 L 745.81 233.01 C754.14,233.00 754.10,232.63 746.67,241.25 C741.76,246.93 741.63,247.00 736.29,247.00 L 730.88 247.00 L 734.69 240.01 ZM 812.65 244.55 C807.65,239.92 810.52,232.60 817.32,232.60 C824.26,232.60 827.25,238.87 822.93,244.37 C820.27,247.75 816.18,247.82 812.65,244.55 Z" fill="rgb(247,252,246)"/>
</g>
</svg>