<svg xmlns="http://www.w3.org/2000/svg" width="1365" height="768" viewBox="0 0 1365 768">
<g>
<path d="M 221.57 549.25 C208.65,562.66 205.95,565.00 203.44,564.97 C199.41,564.93 197.00,563.33 197.00,560.69 C197.00,559.11 212.51,542.71 251.09,503.49 L 305.18 448.50 L 312.01 448.50 C315.76,448.50 319.11,448.78 319.45,449.12 C320.87,450.54 323.41,472.75 327.01,515.29 L 329.02 539.08 L 324.23 553.50 L 376.36 500.73 L 428.50 447.96 L 434.06 447.98 C437.12,447.99 440.39,448.56 441.33,449.25 C443.46,450.81 444.92,461.58 448.53,502.50 C451.35,534.33 451.36,543.48 448.58,548.85 C447.63,550.69 447.02,552.35 447.22,552.56 C447.43,552.76 470.90,529.32 499.38,500.46 L 551.16 448.00 L 557.01 448.00 C560.75,448.00 563.37,448.52 564.29,449.43 C565.93,451.07 567.14,459.66 569.94,489.50 C574.34,536.34 574.42,538.26 572.14,545.78 C567.67,560.48 555.54,568.18 544.25,563.46 C535.33,559.73 533.76,556.20 532.94,537.86 C532.42,526.55 531.85,522.35 530.39,519.36 C528.58,515.66 528.25,515.47 522.50,514.87 C513.88,513.97 513.00,513.43 513.00,509.05 C513.00,503.15 515.06,502.00 525.58,502.00 C536.79,502.01 539.64,503.51 543.55,511.52 C546.06,516.64 546.41,518.70 547.10,532.04 C547.51,540.19 548.35,547.79 548.96,548.92 C551.40,553.48 558.91,552.00 560.98,546.55 C561.55,545.05 561.17,537.60 559.92,525.86 C558.85,515.76 556.96,497.19 555.73,484.58 C554.39,470.76 553.07,461.52 552.40,461.30 C551.80,461.10 529.16,484.13 502.08,512.47 C472.31,543.63 451.89,564.24 450.42,564.61 C446.87,565.50 443.23,564.29 442.49,561.96 L 441.84 559.93 L 438.63 561.92 C432.18,565.91 422.46,565.51 416.76,561.02 C411.92,557.22 410.67,552.72 409.98,536.50 C409.50,525.33 408.90,520.67 407.64,518.25 C406.06,515.22 405.60,515.00 400.72,514.99 C397.85,514.98 394.38,514.40 393.00,513.71 C389.93,512.17 389.21,507.85 391.45,504.44 C392.95,502.14 393.59,502.00 402.38,502.00 C410.39,502.00 412.17,502.32 415.04,504.25 C421.72,508.75 424.97,519.26 425.01,536.50 C425.04,549.19 427.70,553.61 433.80,551.08 C439.43,548.75 439.47,547.78 435.58,508.39 C431.24,464.48 430.95,461.18 430.04,461.00 C429.96,460.98 429.88,460.99 429.80,460.99 C429.75,461.00 429.70,461.00 429.65,461.00 C429.01,461.00 409.52,480.91 386.33,505.25 C331.40,562.90 329.01,565.22 324.90,564.82 C322.30,564.56 319.98,562.63 319.45,560.28 C319.42,560.17 317.21,561.18 314.53,562.53 C308.75,565.46 303.96,565.63 298.50,563.11 C290.72,559.52 288.01,554.65 287.98,544.18 C287.95,533.39 286.23,519.99 284.53,517.40 C283.27,515.48 282.09,515.00 278.63,515.00 C276.25,515.00 272.88,514.51 271.15,513.90 C268.36,512.93 268.00,512.37 268.00,508.97 C268.00,502.67 269.73,501.77 281.10,502.16 C290.28,502.48 291.05,502.67 293.86,505.37 C299.43,510.70 301.28,516.89 301.98,532.50 C302.34,540.39 303.15,547.48 303.84,548.74 C306.51,553.64 314.20,552.03 315.65,546.26 C316.23,543.95 309.77,469.95 308.40,463.18 C308.14,461.90 307.38,461.04 306.71,461.25 C306.05,461.47 290.03,477.81 271.13,497.57 C252.23,517.33 229.93,540.59 221.57,549.25 ZM 621.97 435.61 C619.47,438.02 616.77,439.99 615.97,439.99 C613.99,439.97 594.44,430.52 593.61,429.18 C592.80,427.87 616.08,410.34 629.00,402.53 C658.92,384.45 704.43,365.80 757.46,349.90 C784.16,341.90 784.84,341.27 761.76,345.95 C689.29,360.63 631.43,380.34 585.32,406.07 L 570.86 414.13 L 567.18 411.35 C562.02,407.46 553.00,398.88 553.00,397.87 C553.00,397.41 557.61,394.82 563.25,392.13 C594.75,377.08 650.34,360.79 744.50,339.03 C763.75,334.58 780.29,330.70 781.25,330.40 C782.76,329.94 783.00,328.55 782.97,320.18 L 782.94 310.50 L 776.80 307.00 C768.33,302.17 765.00,296.89 765.00,288.30 C765.00,282.86 765.25,282.00 766.83,282.00 C770.69,282.00 785.00,293.81 785.00,297.00 C785.00,298.84 786.86,298.02 787.54,295.89 C788.63,292.43 795.21,285.82 799.50,283.87 C805.84,280.98 806.29,281.23 805.48,287.25 C804.14,297.25 799.78,304.25 792.48,308.12 L 788.00 310.50 L 788.00 319.75 C788.00,324.84 788.42,329.00 788.93,329.00 C789.44,329.00 800.72,326.75 814.00,324.00 C827.28,321.25 838.34,319.00 838.57,319.00 C838.81,319.00 839.00,313.49 839.00,306.75 L 838.99 294.50 L 834.62 292.70 C828.60,290.23 822.58,284.83 820.09,279.68 C817.56,274.47 817.12,263.27 819.40,262.40 C822.85,261.08 835.69,270.53 840.07,277.62 C841.22,279.48 842.46,281.00 842.83,281.00 C843.20,280.99 844.33,278.98 845.34,276.52 C847.42,271.46 852.45,266.61 858.43,263.89 C864.41,261.18 865.00,261.40 865.00,266.32 C865.00,276.81 859.70,286.35 850.47,292.48 L 845.00 296.11 L 845.00 306.55 C845.00,314.27 845.33,316.99 846.25,316.95 C846.94,316.92 851.78,316.06 857.00,315.05 C862.22,314.03 866.66,313.35 866.86,313.54 C867.06,313.73 866.61,315.83 865.86,318.20 C864.54,322.38 864.16,322.67 852.45,328.50 C836.40,336.49 818.76,342.88 776.63,355.97 C735.37,368.80 719.66,374.55 700.19,384.01 C671.41,397.98 638.21,419.88 621.97,435.61 ZM 685.90 344.55 C684.15,345.45 679.98,347.21 676.61,348.44 L 670.50 350.69 L 660.32 347.37 C637.02,339.75 608.66,335.65 579.00,335.60 C555.08,335.56 544.33,336.71 527.08,341.13 C520.79,342.74 515.34,343.70 514.96,343.28 C514.57,342.85 512.75,338.76 510.91,334.19 C508.18,327.43 507.82,325.73 508.94,325.04 C510.13,324.30 523.19,322.46 532.40,321.73 C536.93,321.37 539.36,317.23 539.82,309.12 C540.24,301.67 539.86,301.07 532.06,296.77 C530.33,295.82 528.29,293.54 527.52,291.69 C525.51,286.88 523.52,285.64 517.67,285.54 C509.71,285.40 507.97,283.28 512.11,278.79 C513.27,277.53 515.52,274.35 517.11,271.72 C518.69,269.09 520.74,266.65 521.65,266.30 C522.61,265.93 525.37,266.83 528.23,268.44 C533.37,271.32 535.64,271.41 541.63,268.94 C544.38,267.81 545.37,267.91 549.82,269.83 C556.02,272.49 557.29,272.50 570.00,270.00 C587.14,266.62 595.14,267.62 597.81,273.47 C599.13,276.38 599.25,287.10 598.00,291.00 C597.33,293.09 597.18,292.77 597.10,289.05 C596.94,282.00 594.72,285.69 594.60,293.20 C594.52,298.18 594.81,299.50 596.00,299.50 C596.83,299.50 597.81,300.17 598.18,301.00 C599.41,303.72 599.03,310.58 597.53,312.56 C595.43,315.34 595.56,320.73 597.75,321.39 C598.71,321.67 602.88,322.00 607.00,322.10 C613.87,322.28 614.47,322.13 614.17,320.40 C613.99,319.35 613.83,315.81 613.83,312.52 C613.82,309.13 613.16,305.27 612.28,303.58 C610.80,300.72 610.70,300.68 609.29,302.56 C608.24,303.96 607.95,306.21 608.29,310.60 C608.73,316.47 607.88,320.00 606.02,320.00 C603.90,320.00 604.06,315.32 606.51,305.28 C610.55,288.77 610.72,288.36 614.45,286.59 C621.92,283.05 648.76,286.23 654.55,291.35 C656.53,293.11 657.26,295.31 658.54,303.41 C659.61,310.18 660.94,314.75 662.74,317.81 C665.28,322.15 665.31,322.39 663.68,325.23 C662.76,326.84 662.00,329.23 662.00,330.54 C662.00,332.71 663.13,333.27 674.96,336.99 C682.09,339.23 688.18,341.48 688.49,341.99 C688.81,342.50 687.64,343.65 685.90,344.55 ZM 631.76 573.46 C627.95,575.05 615.92,576.25 612.50,575.38 C601.75,572.65 595.46,568.73 592.45,562.90 C591.65,561.36 591.00,559.91 591.00,559.68 C591.00,559.45 594.41,558.03 598.57,556.51 L 606.14 553.75 L 607.63 555.88 C609.77,558.94 614.29,561.00 618.87,561.00 C624.47,561.00 628.54,557.38 629.85,551.24 C630.41,548.65 630.69,546.36 630.49,546.15 C630.28,545.95 628.65,546.83 626.85,548.11 C624.50,549.78 621.81,550.54 617.25,550.84 C605.87,551.56 596.44,545.94 591.92,535.74 C588.75,528.60 588.61,515.60 591.63,509.00 C596.61,498.09 603.48,493.56 615.08,493.52 C621.82,493.50 623.05,493.80 626.26,496.25 C630.57,499.53 631.00,499.60 631.00,497.00 C631.00,495.16 631.67,495.00 639.57,495.00 L 648.13 495.00 L 647.50 555.50 L 644.87 561.11 C642.13,566.96 637.99,570.85 631.76,573.46 ZM 933.71 571.97 C918.64,579.39 898.77,574.98 892.41,562.80 C891.63,561.31 891.00,559.90 891.00,559.65 C891.00,559.40 894.30,558.00 898.33,556.53 L 905.66 553.86 L 909.23 557.43 C912.35,560.55 913.42,561.00 917.68,561.00 C920.57,561.00 923.50,560.34 924.88,559.37 C927.54,557.51 930.00,552.28 930.00,548.49 L 930.00 545.92 L 925.66 548.46 C922.28,550.44 919.96,551.00 915.13,551.00 C904.52,551.00 896.77,546.30 892.27,537.15 C889.83,532.17 889.50,530.37 889.50,522.00 C889.51,513.65 889.83,511.89 892.16,507.50 C897.03,498.32 905.18,493.04 914.50,493.04 C919.41,493.04 927.09,495.72 928.44,497.90 C929.54,499.68 931.00,499.17 931.00,497.00 C931.00,495.17 931.67,495.00 939.00,495.00 L 947.00 495.00 L 947.00 524.87 C947.00,556.53 946.64,559.48 941.98,566.02 C940.85,567.61 937.13,570.29 933.71,571.97 ZM 1000.61 549.44 C996.37,552.06 994.69,552.46 986.65,552.79 C978.00,553.14 977.16,552.99 971.24,550.00 C960.89,544.77 955.59,535.62 955.61,523.00 C955.62,513.41 958.40,506.77 964.98,500.61 C972.61,493.48 984.35,491.13 995.61,494.48 C1018.54,501.29 1021.73,536.38 1000.61,549.44 ZM 1153.07 549.75 C1147.55,552.62 1145.94,552.99 1139.16,552.92 C1125.84,552.79 1117.63,548.00 1111.86,537.00 C1109.87,533.19 1109.51,531.04 1109.51,523.00 C1109.51,514.65 1109.83,512.90 1112.16,508.50 C1117.10,499.18 1124.83,494.23 1135.89,493.31 C1148.72,492.23 1159.84,497.97 1165.26,508.46 C1167.78,513.34 1168.77,526.45 1167.09,532.66 C1165.14,539.91 1160.04,546.13 1153.07,549.75 ZM 741.00 550.92 C735.45,553.43 723.64,553.60 717.03,551.26 C710.86,549.09 702.83,540.89 700.68,534.56 C698.58,528.40 698.52,517.77 700.55,511.79 C705.41,497.54 722.38,489.80 738.55,494.46 C743.30,495.83 745.53,497.23 749.59,501.40 C755.70,507.68 758.00,513.62 758.00,523.14 C758.00,535.83 751.73,546.08 741.00,550.92 ZM 870.54 550.63 C864.72,553.34 853.06,553.83 846.88,551.62 C833.34,546.78 825.97,534.89 827.35,520.11 C828.77,504.96 838.73,494.56 853.06,493.26 C870.33,491.69 882.45,502.64 883.77,520.99 L 884.27 528.00 L 843.95 528.00 L 845.52 531.04 C847.59,535.03 852.57,537.99 857.25,538.00 C860.13,538.00 861.89,537.19 864.86,534.51 L 868.72 531.02 L 876.36 534.13 C880.56,535.85 884.00,537.58 884.00,537.98 C884.00,540.08 874.96,548.58 870.54,550.63 ZM 783.01 536.75 L 783.00 552.00 L 775.17 552.00 C770.86,552.00 767.03,551.70 766.67,551.33 C766.30,550.97 766.00,538.14 766.00,522.83 L 766.00 495.00 L 783.00 495.00 L 783.00 501.21 L 786.41 498.21 C791.03,494.16 796.11,492.63 802.71,493.31 C809.26,493.99 814.03,497.26 817.26,503.31 C819.39,507.29 819.50,508.63 819.50,529.50 L 819.50 551.50 L 811.35 551.79 L 803.19 552.08 L 802.85 533.74 C802.43,511.44 801.89,510.00 793.98,510.00 C784.76,510.00 783.01,514.26 783.01,536.75 ZM 1060.10 551.84 C1055.45,553.43 1043.40,553.16 1038.32,551.36 C1032.98,549.47 1025.54,542.93 1022.71,537.63 C1020.83,534.12 1020.50,531.92 1020.50,523.00 C1020.50,510.74 1021.92,507.10 1029.34,500.26 C1041.54,489.01 1063.70,491.15 1072.75,504.45 C1074.54,507.08 1076.00,509.76 1076.00,510.42 C1076.00,511.07 1072.62,513.02 1068.49,514.74 L 1060.99 517.88 L 1059.48 514.97 C1057.52,511.17 1055.16,510.00 1049.50,510.00 C1043.40,510.00 1041.22,511.31 1038.94,516.33 C1036.56,521.56 1036.55,524.42 1038.90,529.58 C1042.63,537.79 1052.68,539.31 1058.61,532.54 C1060.31,530.59 1062.11,529.00 1062.61,528.99 C1065.29,528.97 1076.99,534.68 1077.00,536.02 C1077.01,540.51 1067.66,549.27 1060.10,551.84 ZM 551.36 375.58 C544.13,378.01 537.81,380.00 537.31,380.00 C536.29,380.00 524.54,362.13 525.15,361.51 C526.28,360.39 549.07,354.67 559.50,352.90 C574.59,350.33 603.43,349.35 618.47,350.89 C631.85,352.26 648.00,355.07 648.00,356.03 C648.00,356.42 645.21,357.29 641.79,357.96 C638.37,358.63 632.88,360.54 629.59,362.21 C624.54,364.75 622.84,365.14 618.78,364.66 C605.64,363.10 572.42,368.48 551.36,375.58 ZM 746.80 443.52 C740.88,445.43 735.39,447.00 734.60,447.00 C733.14,447.00 729.11,442.17 715.62,424.24 C711.38,418.59 705.14,411.01 701.75,407.39 L 695.60 400.81 L 698.05 398.95 C701.62,396.22 709.09,392.35 712.16,391.63 C714.38,391.11 716.17,392.09 723.16,397.67 C734.02,406.35 757.26,429.53 759.49,433.93 C761.16,437.21 761.16,437.41 759.40,438.70 C758.39,439.44 752.72,441.61 746.80,443.52 ZM 708.29 452.27 C704.17,453.46 676.61,454.00 668.40,453.05 C657.77,451.82 647.62,450.00 646.07,449.05 C645.02,448.40 646.48,446.11 652.24,439.35 C662.82,426.93 678.35,412.00 680.67,412.00 C681.74,412.00 683.98,413.46 685.65,415.25 C690.66,420.59 701.15,434.95 706.29,443.48 L 711.09 451.47 ZM 790.07 421.91 C785.99,424.71 782.39,426.98 782.07,426.95 C781.76,426.93 776.78,422.36 771.00,416.81 C757.72,404.04 745.58,393.86 736.05,387.53 L 728.61 382.58 L 733.05 380.59 C735.65,379.43 740.48,378.43 744.67,378.20 C751.18,377.83 752.41,378.08 758.16,381.00 C769.81,386.92 784.72,397.42 798.29,409.26 L 802.09 412.57 L 799.79 414.69 C798.53,415.86 794.16,419.11 790.07,421.91 ZM 676.00 535.95 L 675.50 551.50 L 667.96 551.79 C663.81,551.95 660.09,551.76 659.71,551.37 C659.32,550.98 659.00,538.14 659.00,522.83 L 659.00 495.00 L 676.00 495.00 L 676.00 502.07 L 679.09 498.55 C682.51,494.65 687.66,492.66 693.00,493.17 L 696.50 493.50 L 697.07 512.91 L 692.27 512.35 C686.35,511.64 680.89,513.71 678.33,517.62 C676.82,519.92 676.41,523.15 676.00,535.95 ZM 842.70 368.71 C839.84,373.27 837.28,376.96 837.00,376.91 C835.24,376.59 801.00,360.62 801.01,360.12 C801.03,359.20 859.12,332.79 859.75,333.42 C861.20,334.87 852.09,353.73 842.70,368.71 ZM 848.49 232.67 C846.21,235.05 843.51,237.00 842.50,237.00 C841.49,237.00 838.72,234.98 836.36,232.52 C825.75,221.44 826.77,199.75 838.47,187.75 C840.48,185.69 842.53,184.00 843.02,184.00 C843.51,184.00 845.49,186.07 847.42,188.60 C857.76,202.14 858.25,222.48 848.49,232.67 ZM 1100.77 523.25 L 1100.50 551.50 L 1092.96 551.79 C1088.81,551.95 1085.09,551.76 1084.71,551.37 C1084.32,550.98 1084.00,538.14 1084.00,522.83 L 1084.00 495.00 L 1101.03 495.00 ZM 850.14 262.37 C847.19,264.37 843.79,266.00 842.59,266.00 C840.10,266.00 826.89,258.16 822.74,254.23 C819.66,251.31 818.01,246.49 818.02,240.50 C818.04,234.58 819.00,233.63 824.39,234.23 C830.84,234.96 835.27,238.68 839.01,246.52 C840.71,250.08 842.30,253.00 842.54,253.00 C842.78,253.00 843.63,251.43 844.43,249.52 C847.81,241.43 861.77,230.44 864.06,234.06 C865.75,236.74 865.04,244.37 862.62,249.50 C860.03,255.00 858.13,256.95 850.14,262.37 ZM 823.43 393.58 C820.11,397.32 816.96,400.50 816.44,400.65 C815.92,400.80 811.67,398.20 807.00,394.89 C795.68,386.85 779.78,377.44 773.55,375.08 C770.77,374.04 767.15,372.65 765.50,372.00 L 762.50 370.83 L 766.46 368.78 C768.64,367.66 773.14,366.53 776.46,366.28 C781.55,365.90 784.11,366.39 792.70,369.41 C806.37,374.21 822.94,381.58 826.55,384.46 L 829.48 386.80 ZM 548.01 317.27 L 548.00 320.04 L 567.75 319.77 L 587.50 319.50 L 587.79 311.82 C588.22,300.48 584.65,293.54 580.11,296.87 C579.23,297.52 576.56,298.97 574.19,300.10 C570.14,302.02 569.34,302.07 560.93,300.88 C555.33,300.09 551.63,299.97 551.05,300.56 C550.05,301.57 548.02,312.71 548.01,317.27 ZM 790.84 257.01 C787.12,260.73 784.12,260.80 780.80,257.25 C775.87,251.98 774.51,248.11 774.56,239.50 C774.60,230.70 776.52,225.06 781.43,219.25 C784.66,215.43 786.88,215.16 789.71,218.25 C798.94,228.32 799.52,248.33 790.84,257.01 ZM 791.55 282.90 C788.83,284.60 786.36,285.99 786.05,285.99 C785.18,285.97 777.60,281.51 772.58,278.06 C766.69,274.00 764.81,270.36 765.20,263.70 L 765.50 258.50 L 770.25 258.56 C775.79,258.64 779.34,261.40 783.17,268.61 C784.45,271.02 785.72,272.98 786.00,272.95 C786.27,272.92 787.85,270.79 789.50,268.22 C792.49,263.57 798.47,258.74 802.75,257.51 C804.89,256.90 805.00,257.13 805.00,262.47 C805.00,271.49 801.67,276.54 791.55,282.90 ZM 756.02 628.14 C753.53,629.46 750.44,630.00 745.27,630.00 C741.27,630.00 737.97,629.89 737.93,629.75 C737.89,629.61 737.83,623.20 737.79,615.50 L 737.71 601.50 L 742.61 601.18 C750.65,600.65 756.03,601.88 759.08,604.92 C765.16,611.01 763.43,624.17 756.02,628.14 ZM 979.19 534.97 C987.68,540.15 997.00,533.87 997.00,522.98 C997.00,518.52 995.89,515.75 992.70,512.25 C990.14,509.44 981.75,509.08 978.12,511.63 C971.01,516.61 971.64,530.37 979.19,534.97 ZM 722.87 535.32 C732.36,541.21 743.17,530.79 739.96,518.85 C738.23,512.42 735.14,510.00 728.65,510.00 C723.67,510.00 722.94,510.30 720.10,513.53 C717.43,516.58 717.00,517.84 717.00,522.63 C717.00,528.86 718.83,532.81 722.87,535.32 ZM 1134.42 536.03 C1140.27,538.40 1146.29,535.79 1149.06,529.68 C1151.45,524.42 1151.45,521.58 1149.06,516.33 C1146.78,511.30 1144.60,510.00 1138.47,510.00 C1134.49,510.00 1133.30,510.50 1130.40,513.40 C1127.29,516.51 1127.00,517.31 1127.00,522.82 C1127.00,527.89 1127.42,529.35 1129.67,532.02 C1131.14,533.76 1133.27,535.57 1134.42,536.03 ZM 913.37 533.08 C917.12,535.37 920.13,535.50 923.90,533.55 C929.28,530.77 932.01,523.59 930.01,517.52 C927.74,510.66 920.12,507.43 913.55,510.54 C909.14,512.64 907.00,516.45 907.00,522.23 C907.00,527.16 908.86,530.33 913.37,533.08 ZM 613.30 533.04 C617.17,535.40 620.11,535.51 624.09,533.45 C630.72,530.03 632.93,521.16 628.71,514.90 C624.24,508.26 616.93,507.41 610.86,512.84 C604.89,518.17 606.16,528.69 613.30,533.04 ZM 555.00 627.00 C554.11,629.14 553.08,630.00 551.38,630.00 C550.07,630.00 548.99,629.66 548.98,629.25 C548.97,628.84 551.31,622.29 554.17,614.70 L 559.37 600.90 L 566.44 601.50 L 571.72 614.99 C574.62,622.41 577.00,628.82 577.00,629.24 C577.00,629.66 575.84,630.00 574.41,630.00 C572.46,630.00 571.55,629.27 570.69,627.00 C569.59,624.08 569.38,624.00 562.90,624.00 C556.45,624.00 556.20,624.09 555.00,627.00 ZM 694.00 621.00 C694.00,629.06 693.81,630.00 692.17,630.00 C691.16,630.00 690.03,629.70 689.67,629.33 C689.30,628.97 689.00,622.44 689.00,614.83 L 689.00 601.00 L 691.75 601.03 C694.05,601.05 695.49,602.44 700.50,609.51 C703.80,614.16 706.84,617.97 707.25,617.98 C707.66,617.99 708.00,614.17 708.00,609.50 C708.00,601.10 708.03,601.00 710.50,601.00 L 713.00 601.00 L 713.00 630.00 L 710.58 630.00 C708.66,630.00 706.83,628.12 701.83,621.02 C698.35,616.08 695.16,612.03 694.75,612.02 C694.34,612.01 694.00,616.05 694.00,621.00 ZM 788.85 627.00 C788.08,629.21 787.17,630.00 785.40,630.00 C784.08,630.00 783.00,629.44 782.99,628.75 C782.99,628.06 785.32,621.51 788.16,614.20 L 793.33 600.90 L 796.81 601.20 L 800.29 601.50 L 805.56 615.00 C808.46,622.42 810.47,628.88 810.02,629.34 C808.55,630.87 805.54,629.52 804.20,626.74 C802.97,624.17 802.49,624.00 796.39,624.00 C790.07,624.00 789.87,624.08 788.85,627.00 ZM 665.82 627.25 C665.51,629.40 665.03,629.51 654.95,629.78 C649.15,629.94 644.08,629.75 643.70,629.37 C643.31,628.98 643.00,622.44 643.00,614.83 L 643.00 601.00 L 665.00 601.00 L 665.00 603.50 C665.00,605.96 664.87,606.00 657.00,606.00 L 649.00 606.00 L 649.00 613.00 L 656.57 613.00 C663.85,613.00 664.13,613.09 663.82,615.25 C663.53,617.31 662.90,617.52 656.25,617.79 L 649.00 618.09 L 649.00 625.00 L 657.57 625.00 C665.88,625.00 666.13,625.07 665.82,627.25 ZM 850.93 628.54 C846.84,630.65 839.16,630.39 835.25,628.01 C833.46,626.92 832.00,625.61 832.00,625.10 C832.00,624.58 831.73,623.45 831.39,622.58 C830.47,620.19 835.79,620.53 837.84,623.00 C840.35,626.01 845.07,626.57 848.00,624.20 C850.10,622.50 850.25,622.00 849.09,620.60 C848.35,619.71 845.25,618.26 842.21,617.37 C827.56,613.11 828.81,601.00 843.89,601.00 C849.34,601.00 853.63,603.70 854.20,607.50 C854.64,610.40 850.50,610.80 849.00,608.01 C848.06,606.24 847.11,605.94 843.19,606.20 C839.27,606.45 838.50,606.83 838.50,608.50 C838.50,610.07 839.84,610.93 844.73,612.51 C852.45,615.00 855.00,617.09 855.00,620.91 C855.00,625.20 854.09,626.90 850.93,628.54 ZM 620.00 627.50 L 620.00 630.00 L 608.97 630.00 C600.12,630.00 597.82,629.71 597.37,628.51 C597.03,627.62 599.66,623.01 603.90,617.08 C607.80,611.60 611.00,606.87 611.00,606.56 C611.00,606.25 608.08,606.00 604.50,606.00 C598.23,606.00 598.00,605.91 598.00,603.50 L 598.00 601.00 L 609.00 601.00 C618.14,601.00 620.00,601.26 620.00,602.51 C620.00,603.34 617.05,608.10 613.44,613.08 C609.83,618.07 606.63,622.79 606.33,623.58 C605.89,624.73 607.15,625.00 612.89,625.00 C619.81,625.00 620.00,625.07 620.00,627.50 ZM 997.07 481.27 L 991.64 488.00 L 984.32 488.00 C980.29,488.00 977.00,487.81 977.00,487.58 C977.00,487.36 979.16,483.42 981.80,478.83 L 986.60 470.50 L 996.40 470.21 L 1006.20 469.93 L 1004.35 472.23 C1003.33,473.50 1000.06,477.57 997.07,481.27 ZM 1099.08 485.08 C1095.13,489.02 1090.22,489.07 1085.89,485.20 C1083.38,482.95 1082.73,481.56 1082.64,478.20 C1082.50,472.78 1085.92,469.09 1091.80,468.30 C1095.41,467.82 1096.27,468.12 1098.95,470.80 C1103.20,475.04 1103.25,480.91 1099.08,485.08 ZM 515.80 623.75 C515.54,628.66 515.20,629.54 513.46,629.79 C512.34,629.95 511.10,629.77 510.71,629.38 C510.32,628.99 510.00,622.44 510.00,614.83 L 510.00 601.00 L 531.00 601.00 L 531.00 603.50 C531.00,605.95 530.84,606.00 523.44,606.00 L 515.88 606.00 L 516.50 613.50 L 522.75 613.80 C528.18,614.06 529.00,614.35 529.00,616.05 C529.00,617.78 528.28,618.00 522.55,618.00 L 516.10 618.00 ZM 743.00 606.00 L 743.00 625.00 L 747.55 625.00 C753.79,625.00 757.00,621.84 757.00,615.68 C757.00,608.98 754.20,606.00 747.93,606.00 ZM 632.26 325.99 C635.14,326.41 638.06,326.81 638.75,326.88 C639.65,326.97 640.00,324.91 640.00,319.54 C640.00,313.18 639.71,311.92 638.07,311.04 C635.00,309.40 632.28,309.81 631.71,312.00 C631.01,314.69 629.57,314.52 627.59,311.50 C624.88,307.35 624.00,308.58 624.00,316.53 L 624.00 317.08 C624.00,320.92 624.00,322.84 624.95,323.95 C625.95,325.11 628.02,325.37 632.26,325.99 ZM 845.71 516.37 C846.05,516.72 850.68,517.00 856.00,517.00 C861.32,517.00 865.95,516.72 866.29,516.37 C867.25,515.42 864.23,510.19 862.06,509.03 C861.00,508.46 858.27,508.00 856.00,508.00 C853.73,508.00 851.00,508.46 849.94,509.03 C847.77,510.19 844.75,515.42 845.71,516.37 ZM 650.01 329.69 C651.93,330.35 653.84,330.91 654.25,330.94 C655.61,331.05 655.03,328.27 653.41,326.93 C652.54,326.21 651.14,323.90 650.31,321.81 C648.42,317.10 647.28,316.98 646.45,321.40 C645.46,326.67 646.20,328.39 650.01,329.69 ZM 792.58 616.75 C791.91,618.86 792.15,619.00 796.43,619.00 C798.94,619.00 801.00,618.82 801.00,618.59 C801.00,618.36 800.01,615.60 798.80,612.44 L 796.61 606.70 L 794.95 610.60 C794.04,612.75 792.97,615.52 792.58,616.75 ZM 560.24 613.00 L 558.08 619.00 L 562.54 619.00 C564.99,619.00 567.00,618.86 567.00,618.68 C567.00,617.74 563.64,608.39 563.07,607.75 C562.70,607.34 561.43,609.70 560.24,613.00 ZM 542.00 317.19 C542.00,318.84 542.28,319.02 543.40,318.08 C545.30,316.50 546.35,311.95 545.09,310.69 C543.96,309.56 542.00,313.67 542.00,317.19 Z" fill="rgb(6,101,12)"/>
<path d="M 598.71 286.67 C598.77,291.60 598.68,297.13 598.48,301.87 C598.40,301.55 598.30,301.25 598.18,301.00 C597.81,300.17 596.83,299.50 596.00,299.50 C595.78,299.50 595.59,299.45 595.43,299.35 L 595.77 296.25 C595.97,294.46 595.97,291.54 595.77,289.75 L 595.43 286.63 C596.12,284.44 597.00,284.70 597.10,289.05 C597.18,292.77 597.33,293.09 598.00,291.00 C598.33,289.95 598.57,288.42 598.71,286.67 ZM 595.35 299.29 C594.97,298.97 594.76,298.27 594.66,296.96 ZM 596.87 320.75 C597.35,321.16 598.09,321.44 599.22,321.63 C598.53,321.55 598.02,321.47 597.75,321.39 C597.40,321.28 597.11,321.06 596.87,320.75 ZM 597.47 312.64 C597.39,312.91 597.30,313.10 597.21,313.19 C597.09,313.31 596.98,313.47 596.87,313.67 C597.04,313.30 597.24,312.96 597.47,312.64 ZM 595.12 287.86 C595.15,287.73 595.18,287.60 595.20,287.47 Z" fill="rgb(144,186,147)"/>
<path d="M 500.00 269.31 C500.00,271.28 499.48,273.21 498.84,273.60 C497.25,274.58 498.42,246.54 500.45,234.91 C504.02,214.47 512.66,190.74 523.20,172.34 C534.90,151.95 554.66,129.72 573.50,115.76 C630.73,73.35 707.33,67.18 772.00,99.75 C781.14,104.35 795.00,113.04 795.00,114.17 C795.00,115.55 792.96,115.10 790.15,113.11 C786.62,110.59 768.56,102.93 757.19,99.12 C715.38,85.11 675.18,84.61 637.79,97.62 C577.91,118.46 530.98,166.82 509.61,229.68 C504.76,243.95 500.00,263.58 500.00,269.31 Z" fill="rgb(239,174,53)"/>
<path d="M 0.00 384.00 L 0.00 0.00 L 682.50 0.00 L 1365.00 0.00 L 1365.00 384.00 L 1365.00 768.00 L 682.50 768.00 L 0.00 768.00 L 0.00 384.00 ZM 515.80 623.75 L 516.10 618.00 L 522.55 618.00 C528.28,618.00 529.00,617.78 529.00,616.05 C529.00,614.35 528.18,614.06 522.75,613.80 L 516.50 613.50 L 516.19 609.75 L 515.88 606.00 L 523.44 606.00 C530.84,606.00 531.00,605.95 531.00,603.50 L 531.00 601.00 L 520.50 601.00 L 510.00 601.00 L 510.00 614.83 C510.00,622.44 510.32,628.99 510.71,629.38 C511.10,629.77 512.34,629.95 513.46,629.79 C515.20,629.54 515.54,628.66 515.80,623.75 ZM 555.00 627.00 C556.20,624.09 556.45,624.00 562.90,624.00 C569.38,624.00 569.59,624.08 570.69,627.00 C571.55,629.27 572.46,630.00 574.41,630.00 C575.84,630.00 577.00,629.66 577.00,629.24 C577.00,628.82 574.62,622.41 571.72,614.99 L 566.44 601.50 L 562.91 601.20 L 559.37 600.90 L 554.17 614.70 C551.31,622.29 548.97,628.84 548.98,629.25 C548.99,629.66 550.07,630.00 551.38,630.00 C553.08,630.00 554.11,629.14 555.00,627.00 ZM 620.00 627.50 C620.00,625.07 619.81,625.00 612.89,625.00 C607.15,625.00 605.89,624.73 606.33,623.58 C606.63,622.79 609.83,618.07 613.44,613.08 C617.05,608.10 620.00,603.34 620.00,602.51 C620.00,601.26 618.14,601.00 609.00,601.00 L 598.00 601.00 L 598.00 603.50 C598.00,605.91 598.23,606.00 604.50,606.00 C608.08,606.00 611.00,606.25 611.00,606.56 C611.00,606.87 607.80,611.60 603.90,617.08 C599.66,623.01 597.03,627.62 597.37,628.51 C597.82,629.71 600.12,630.00 608.97,630.00 L 620.00 630.00 L 620.00 627.50 ZM 665.82 627.25 C666.13,625.07 665.88,625.00 657.57,625.00 L 649.00 625.00 L 649.00 621.54 L 649.00 618.09 L 656.25 617.79 C662.90,617.52 663.53,617.31 663.82,615.25 C664.13,613.09 663.85,613.00 656.57,613.00 L 649.00 613.00 L 649.00 609.50 L 649.00 606.00 L 657.00 606.00 C664.87,606.00 665.00,605.96 665.00,603.50 L 665.00 601.00 L 654.00 601.00 L 643.00 601.00 L 643.00 614.83 C643.00,622.44 643.31,628.98 643.70,629.37 C644.08,629.75 649.15,629.94 654.95,629.78 C665.03,629.51 665.51,629.40 665.82,627.25 ZM 694.00 621.00 C694.00,616.05 694.34,612.01 694.75,612.02 C695.16,612.03 698.35,616.08 701.83,621.02 C706.83,628.12 708.66,630.00 710.58,630.00 L 713.00 630.00 L 713.00 615.50 L 713.00 601.00 L 710.50 601.00 C708.03,601.00 708.00,601.10 708.00,609.50 C708.00,614.17 707.66,617.99 707.25,617.98 C706.84,617.97 703.80,614.16 700.50,609.51 C695.49,602.44 694.05,601.05 691.75,601.03 L 689.00 601.00 L 689.00 614.83 C689.00,622.44 689.30,628.97 689.67,629.33 C690.03,629.70 691.16,630.00 692.17,630.00 C693.81,630.00 694.00,629.06 694.00,621.00 ZM 756.02 628.14 C763.43,624.17 765.16,611.01 759.08,604.92 C756.03,601.88 750.65,600.65 742.61,601.18 L 737.71 601.50 L 737.79 615.50 C737.83,623.20 737.89,629.61 737.93,629.75 C737.97,629.89 741.27,630.00 745.27,630.00 C750.44,630.00 753.53,629.46 756.02,628.14 ZM 788.85 627.00 C789.87,624.08 790.07,624.00 796.39,624.00 C802.49,624.00 802.97,624.17 804.20,626.74 C805.54,629.52 808.55,630.87 810.02,629.34 C810.47,628.88 808.46,622.42 805.56,615.00 L 800.29 601.50 L 796.81 601.20 L 793.33 600.90 L 788.16 614.20 C785.32,621.51 782.99,628.06 782.99,628.75 C783.00,629.44 784.08,630.00 785.40,630.00 C787.17,630.00 788.08,629.21 788.85,627.00 ZM 850.93 628.54 C854.09,626.90 855.00,625.20 855.00,620.91 C855.00,617.09 852.45,615.00 844.73,612.51 C839.84,610.93 838.50,610.07 838.50,608.50 C838.50,606.83 839.27,606.45 843.19,606.20 C847.11,605.94 848.06,606.24 849.00,608.01 C850.50,610.80 854.64,610.40 854.20,607.50 C853.63,603.70 849.34,601.00 843.89,601.00 C828.81,601.00 827.56,613.11 842.21,617.37 C845.25,618.26 848.35,619.71 849.09,620.60 C850.25,622.00 850.10,622.50 848.00,624.20 C845.07,626.57 840.35,626.01 837.84,623.00 C835.79,620.53 830.47,620.19 831.39,622.58 C831.73,623.45 832.00,624.58 832.00,625.10 C832.00,625.61 833.46,626.92 835.25,628.01 C839.16,630.39 846.84,630.65 850.93,628.54 ZM 631.76 573.46 C637.99,570.85 642.13,566.96 644.87,561.11 L 647.50 555.50 L 647.82 525.25 L 648.13 495.00 L 639.57 495.00 C631.67,495.00 631.00,495.16 631.00,497.00 C631.00,499.60 630.57,499.53 626.26,496.25 C623.05,493.80 621.82,493.50 615.08,493.52 C603.48,493.56 596.61,498.09 591.63,509.00 C588.61,515.60 588.75,528.60 591.92,535.74 C596.44,545.94 605.87,551.56 617.25,550.84 C621.81,550.54 624.50,549.78 626.85,548.11 C628.65,546.83 630.28,545.95 630.49,546.15 C630.69,546.36 630.41,548.65 629.85,551.24 C628.54,557.38 624.47,561.00 618.87,561.00 C614.29,561.00 609.77,558.94 607.63,555.88 L 606.14 553.75 L 598.57 556.51 C594.41,558.03 591.00,559.45 591.00,559.68 C591.00,559.91 591.65,561.36 592.45,562.90 C595.46,568.73 601.75,572.65 612.50,575.38 C615.92,576.25 627.95,575.05 631.76,573.46 ZM 933.71 571.97 C937.13,570.29 940.85,567.61 941.98,566.02 C946.64,559.48 947.00,556.53 947.00,524.87 L 947.00 495.00 L 939.00 495.00 C931.67,495.00 931.00,495.17 931.00,497.00 C931.00,499.17 929.54,499.68 928.44,497.90 C927.09,495.72 919.41,493.04 914.50,493.04 C905.18,493.04 897.03,498.32 892.16,507.50 C889.83,511.89 889.51,513.65 889.50,522.00 C889.50,530.37 889.83,532.17 892.27,537.15 C896.77,546.30 904.52,551.00 915.13,551.00 C919.96,551.00 922.28,550.44 925.66,548.46 L 930.00 545.92 L 930.00 548.49 C930.00,552.28 927.54,557.51 924.88,559.37 C923.50,560.34 920.57,561.00 917.68,561.00 C913.42,561.00 912.35,560.55 909.23,557.43 L 905.66 553.86 L 898.33 556.53 C894.30,558.00 891.00,559.40 891.00,559.65 C891.00,559.90 891.63,561.31 892.41,562.80 C898.77,574.98 918.64,579.39 933.71,571.97 ZM 221.57 549.25 C229.93,540.59 252.23,517.33 271.13,497.57 C290.03,477.81 306.05,461.47 306.71,461.25 C307.38,461.04 308.14,461.90 308.40,463.18 C309.77,469.95 316.23,543.95 315.65,546.26 C314.20,552.03 306.51,553.64 303.84,548.74 C303.15,547.48 302.34,540.39 301.98,532.50 C301.28,516.89 299.43,510.70 293.86,505.37 C291.05,502.67 290.28,502.48 281.10,502.16 C269.73,501.77 268.00,502.67 268.00,508.97 C268.00,512.37 268.36,512.93 271.15,513.90 C272.88,514.51 276.25,515.00 278.63,515.00 C282.09,515.00 283.27,515.48 284.53,517.40 C286.23,519.99 287.95,533.39 287.98,544.18 C288.01,554.65 290.72,559.52 298.50,563.11 C303.96,565.63 308.75,565.46 314.53,562.53 C317.21,561.18 319.42,560.17 319.45,560.28 C319.98,562.63 322.30,564.56 324.90,564.82 C329.01,565.22 331.40,562.90 386.33,505.25 C409.52,480.91 429.01,461.00 429.65,461.00 C430.95,461.00 430.69,458.94 435.58,508.39 C439.47,547.78 439.43,548.75 433.80,551.08 C427.70,553.61 425.04,549.19 425.01,536.50 C424.97,519.26 421.72,508.75 415.04,504.25 C412.17,502.32 410.39,502.00 402.38,502.00 C393.59,502.00 392.95,502.14 391.45,504.44 C389.21,507.85 389.93,512.17 393.00,513.71 C394.38,514.40 397.85,514.98 400.72,514.99 C405.60,515.00 406.06,515.22 407.64,518.25 C408.90,520.67 409.50,525.33 409.98,536.50 C410.67,552.72 411.92,557.22 416.76,561.02 C422.46,565.51 432.18,565.91 438.63,561.92 L 441.84 559.93 L 442.49 561.96 C443.23,564.29 446.87,565.50 450.42,564.61 C451.89,564.24 472.31,543.63 502.08,512.47 C529.16,484.13 551.80,461.10 552.40,461.30 C553.07,461.52 554.39,470.76 555.73,484.58 C556.96,497.19 558.85,515.76 559.92,525.86 C561.17,537.60 561.55,545.05 560.98,546.55 C558.91,552.00 551.40,553.48 548.96,548.92 C548.35,547.79 547.51,540.19 547.10,532.04 C546.41,518.70 546.06,516.64 543.55,511.52 C539.64,503.51 536.79,502.01 525.58,502.00 C515.06,502.00 513.00,503.15 513.00,509.05 C513.00,513.43 513.88,513.97 522.50,514.87 C528.25,515.47 528.58,515.66 530.39,519.36 C531.85,522.35 532.42,526.55 532.94,537.86 C533.76,556.20 535.33,559.73 544.25,563.46 C555.54,568.18 567.67,560.48 572.14,545.78 C574.42,538.26 574.34,536.34 569.94,489.50 C567.14,459.66 565.93,451.07 564.29,449.43 C563.37,448.52 560.75,448.00 557.01,448.00 L 551.16 448.00 L 499.38 500.46 C470.90,529.32 447.43,552.76 447.22,552.56 C447.02,552.35 447.63,550.69 448.58,548.85 C451.36,543.48 451.35,534.33 448.53,502.50 C444.92,461.58 443.46,450.81 441.33,449.25 C440.39,448.56 437.12,447.99 434.06,447.98 L 428.50 447.96 L 376.36 500.73 L 324.23 553.50 L 326.62 546.29 L 329.02 539.08 L 327.01 515.29 C323.41,472.75 320.87,450.54 319.45,449.12 C319.11,448.78 315.76,448.50 312.01,448.50 L 305.18 448.50 L 251.09 503.49 C212.51,542.71 197.00,559.11 197.00,560.69 C197.00,563.33 199.41,564.93 203.44,564.97 C205.95,565.00 208.65,562.66 221.57,549.25 ZM 741.00 550.92 C751.73,546.08 758.00,535.83 758.00,523.14 C758.00,513.62 755.70,507.68 749.59,501.40 C745.53,497.23 743.30,495.83 738.55,494.46 C722.38,489.80 705.41,497.54 700.55,511.79 C698.52,517.77 698.58,528.40 700.68,534.56 C702.83,540.89 710.86,549.09 717.03,551.26 C723.64,553.60 735.45,553.43 741.00,550.92 ZM 870.54 550.63 C874.96,548.58 884.00,540.08 884.00,537.98 C884.00,537.58 880.56,535.85 876.36,534.13 L 868.72 531.02 L 864.86 534.51 C861.89,537.19 860.13,538.00 857.25,538.00 C852.57,537.99 847.59,535.03 845.52,531.04 L 843.95 528.00 L 864.11 528.00 L 884.27 528.00 L 883.77 520.99 C882.45,502.64 870.33,491.69 853.06,493.26 C838.73,494.56 828.77,504.96 827.35,520.11 C825.97,534.89 833.34,546.78 846.88,551.62 C853.06,553.83 864.72,553.34 870.54,550.63 ZM 1000.61 549.44 C1021.73,536.38 1018.54,501.29 995.61,494.48 C984.35,491.13 972.61,493.48 964.98,500.61 C958.40,506.77 955.62,513.41 955.61,523.00 C955.59,535.62 960.89,544.77 971.24,550.00 C977.16,552.99 978.00,553.14 986.65,552.79 C994.69,552.46 996.37,552.06 1000.61,549.44 ZM 1060.10 551.84 C1067.66,549.27 1077.01,540.51 1077.00,536.02 C1076.99,534.68 1065.29,528.97 1062.61,528.99 C1062.11,529.00 1060.31,530.59 1058.61,532.54 C1052.68,539.31 1042.63,537.79 1038.90,529.58 C1036.55,524.42 1036.56,521.56 1038.94,516.33 C1041.22,511.31 1043.40,510.00 1049.50,510.00 C1055.16,510.00 1057.52,511.17 1059.48,514.97 L 1060.99 517.88 L 1068.49 514.74 C1072.62,513.02 1076.00,511.07 1076.00,510.42 C1076.00,509.76 1074.54,507.08 1072.75,504.45 C1063.70,491.15 1041.54,489.01 1029.34,500.26 C1021.92,507.10 1020.50,510.74 1020.50,523.00 C1020.50,531.92 1020.83,534.12 1022.71,537.63 C1025.54,542.93 1032.98,549.47 1038.32,551.36 C1043.40,553.16 1055.45,553.43 1060.10,551.84 ZM 1153.07 549.75 C1160.04,546.13 1165.14,539.91 1167.09,532.66 C1168.77,526.45 1167.78,513.34 1165.26,508.46 C1159.84,497.97 1148.72,492.23 1135.89,493.31 C1124.83,494.23 1117.10,499.18 1112.16,508.50 C1109.83,512.90 1109.51,514.65 1109.51,523.00 C1109.51,531.04 1109.87,533.19 1111.86,537.00 C1117.63,548.00 1125.84,552.79 1139.16,552.92 C1145.94,552.99 1147.55,552.62 1153.07,549.75 ZM 676.00 535.95 C676.41,523.15 676.82,519.92 678.33,517.62 C680.89,513.71 686.35,511.64 692.27,512.35 L 697.07 512.91 L 696.79 503.21 L 696.50 493.50 L 693.00 493.17 C687.66,492.66 682.51,494.65 679.09,498.55 L 676.00 502.07 L 676.00 498.53 L 676.00 495.00 L 667.50 495.00 L 659.00 495.00 L 659.00 522.83 C659.00,538.14 659.32,550.98 659.71,551.37 C660.09,551.76 663.81,551.95 667.96,551.79 L 675.50 551.50 L 676.00 535.95 ZM 783.01 536.75 C783.01,514.26 784.76,510.00 793.98,510.00 C801.89,510.00 802.43,511.44 802.85,533.74 L 803.19 552.08 L 811.35 551.79 L 819.50 551.50 L 819.50 529.50 C819.50,508.63 819.39,507.29 817.26,503.31 C814.03,497.26 809.26,493.99 802.71,493.31 C796.11,492.63 791.03,494.16 786.41,498.21 L 783.00 501.21 L 783.00 498.10 L 783.00 495.00 L 774.50 495.00 L 766.00 495.00 L 766.00 522.83 C766.00,538.14 766.30,550.97 766.67,551.33 C767.03,551.70 770.86,552.00 775.17,552.00 L 783.00 552.00 L 783.01 536.75 ZM 1100.77 523.25 L 1101.03 495.00 L 1092.52 495.00 L 1084.00 495.00 L 1084.00 522.83 C1084.00,538.14 1084.32,550.98 1084.71,551.37 C1085.09,551.76 1088.81,551.95 1092.96,551.79 L 1100.50 551.50 L 1100.77 523.25 ZM 997.07 481.27 C1000.06,477.57 1003.33,473.50 1004.35,472.23 L 1006.20 469.93 L 996.40 470.21 L 986.60 470.50 L 981.80 478.83 C979.16,483.42 977.00,487.36 977.00,487.58 C977.00,487.81 980.29,488.00 984.32,488.00 L 991.64 488.00 L 997.07 481.27 ZM 1099.08 485.08 C1103.25,480.91 1103.20,475.04 1098.95,470.80 C1096.27,468.12 1095.41,467.82 1091.80,468.30 C1085.92,469.09 1082.50,472.78 1082.64,478.20 C1082.73,481.56 1083.38,482.95 1085.89,485.20 C1090.22,489.07 1095.13,489.02 1099.08,485.08 ZM 708.29 452.27 L 711.09 451.47 L 706.29 443.48 C701.15,434.95 690.66,420.59 685.65,415.25 C683.98,413.46 681.74,412.00 680.67,412.00 C678.35,412.00 662.82,426.93 652.24,439.35 C646.48,446.11 645.02,448.40 646.07,449.05 C647.62,450.00 657.77,451.82 668.40,453.05 C676.61,454.00 704.17,453.46 708.29,452.27 ZM 746.80 443.52 C752.72,441.61 758.39,439.44 759.40,438.70 C761.16,437.41 761.16,437.21 759.49,433.93 C757.26,429.53 734.02,406.35 723.16,397.67 C716.17,392.09 714.38,391.11 712.16,391.63 C709.09,392.35 701.62,396.22 698.05,398.95 L 695.60 400.81 L 701.75 407.39 C705.14,411.01 711.38,418.59 715.62,424.24 C729.11,442.17 733.14,447.00 734.60,447.00 C735.39,447.00 740.88,445.43 746.80,443.52 ZM 621.97 435.61 C638.21,419.88 671.41,397.98 700.19,384.01 C719.66,374.55 735.37,368.80 776.63,355.97 C818.76,342.88 836.40,336.49 852.45,328.50 C864.16,322.67 864.54,322.38 865.86,318.20 C866.61,315.83 867.06,313.73 866.86,313.54 C866.66,313.35 862.22,314.03 857.00,315.05 C851.78,316.06 846.94,316.92 846.25,316.95 C845.33,316.99 845.00,314.27 845.00,306.55 L 845.00 296.11 L 850.47 292.48 C859.70,286.35 865.00,276.81 865.00,266.32 C865.00,261.40 864.41,261.18 858.43,263.89 C852.45,266.61 847.42,271.46 845.34,276.52 C844.33,278.98 843.20,280.99 842.83,281.00 C842.46,281.00 841.22,279.48 840.07,277.62 C835.69,270.53 822.85,261.08 819.40,262.40 C817.12,263.27 817.56,274.47 820.09,279.68 C822.58,284.83 828.60,290.23 834.62,292.70 L 838.99 294.50 L 839.00 306.75 C839.00,313.49 838.81,319.00 838.57,319.00 C838.34,319.00 827.28,321.25 814.00,324.00 C800.72,326.75 789.44,329.00 788.93,329.00 C788.42,329.00 788.00,324.84 788.00,319.75 L 788.00 310.50 L 792.48 308.12 C799.78,304.25 804.14,297.25 805.48,287.25 C806.29,281.23 805.84,280.98 799.50,283.87 C795.21,285.82 788.63,292.43 787.54,295.89 C786.86,298.02 785.00,298.84 785.00,297.00 C785.00,293.81 770.69,282.00 766.83,282.00 C765.25,282.00 765.00,282.86 765.00,288.30 C765.00,296.89 768.33,302.17 776.80,307.00 L 782.94 310.50 L 782.97 320.18 C783.00,328.55 782.76,329.94 781.25,330.40 C780.29,330.70 763.75,334.58 744.50,339.03 C650.34,360.79 594.75,377.08 563.25,392.13 C557.61,394.82 553.00,397.41 553.00,397.87 C553.00,398.88 562.02,407.46 567.18,411.35 L 570.86 414.13 L 585.32 406.07 C631.43,380.34 689.29,360.63 761.76,345.95 C784.84,341.27 784.16,341.90 757.46,349.90 C704.43,365.80 658.92,384.45 629.00,402.53 C616.08,410.34 592.80,427.87 593.61,429.18 C594.44,430.52 613.99,439.97 615.97,439.99 C616.77,439.99 619.47,438.02 621.97,435.61 ZM 790.07 421.91 C794.16,419.11 798.53,415.86 799.79,414.69 L 802.09 412.57 L 798.29 409.26 C784.72,397.42 769.81,386.92 758.16,381.00 C752.41,378.08 751.18,377.83 744.67,378.20 C740.48,378.43 735.65,379.43 733.05,380.59 L 728.61 382.58 L 736.05 387.53 C745.58,393.86 757.72,404.04 771.00,416.81 C776.78,422.36 781.76,426.93 782.07,426.95 C782.39,426.98 785.99,424.71 790.07,421.91 ZM 823.43 393.58 L 829.48 386.80 L 826.55 384.46 C822.94,381.58 806.37,374.21 792.70,369.41 C784.11,366.39 781.55,365.90 776.46,366.28 C773.14,366.53 768.64,367.66 766.46,368.78 L 762.50 370.83 L 765.50 372.00 C767.15,372.65 770.77,374.04 773.55,375.08 C779.78,377.44 795.68,386.85 807.00,394.89 C811.67,398.20 815.92,400.80 816.44,400.65 C816.96,400.50 820.11,397.32 823.43,393.58 ZM 551.36 375.58 C572.42,368.48 605.64,363.10 618.78,364.66 C622.84,365.14 624.54,364.75 629.59,362.21 C632.88,360.54 638.37,358.63 641.79,357.96 C645.21,357.29 648.00,356.42 648.00,356.03 C648.00,355.07 631.85,352.26 618.47,350.89 C603.43,349.35 574.59,350.33 559.50,352.90 C549.07,354.67 526.28,360.39 525.15,361.51 C524.54,362.13 536.29,380.00 537.31,380.00 C537.81,380.00 544.13,378.01 551.36,375.58 ZM 842.70 368.71 C852.09,353.73 861.20,334.87 859.75,333.42 C859.12,332.79 801.03,359.20 801.01,360.12 C801.00,360.62 835.24,376.59 837.00,376.91 C837.28,376.96 839.84,373.27 842.70,368.71 ZM 685.90 344.55 C687.64,343.65 688.81,342.50 688.49,341.99 C688.18,341.48 682.09,339.23 674.96,336.99 C663.13,333.27 662.00,332.71 662.00,330.54 C662.00,329.23 662.76,326.84 663.68,325.23 C665.31,322.39 665.28,322.15 662.74,317.81 C660.94,314.75 659.61,310.18 658.54,303.41 C657.26,295.31 656.53,293.11 654.55,291.35 C648.76,286.23 621.92,283.05 614.45,286.59 C610.72,288.36 610.55,288.77 606.51,305.28 C604.06,315.32 603.90,320.00 606.02,320.00 C607.88,320.00 608.73,316.47 608.29,310.60 C607.95,306.21 608.24,303.96 609.29,302.56 C610.70,300.68 610.80,300.72 612.28,303.58 C613.16,305.27 613.82,309.13 613.83,312.52 C613.83,315.81 613.99,319.35 614.17,320.40 C614.47,322.13 613.87,322.28 607.00,322.10 C596.80,321.84 596.00,321.52 596.00,317.63 C596.00,315.85 596.55,313.85 597.21,313.19 C598.83,311.57 599.34,277.66 597.80,273.70 C595.46,267.66 587.35,266.58 570.00,270.00 C557.29,272.50 556.02,272.49 549.82,269.83 C545.37,267.91 544.38,267.81 541.63,268.94 C535.64,271.41 533.37,271.32 528.23,268.44 C525.37,266.83 522.61,265.93 521.65,266.30 C520.74,266.65 518.69,269.09 517.11,271.72 C515.52,274.35 513.27,277.53 512.11,278.79 C507.97,283.28 509.71,285.40 517.67,285.54 C523.52,285.64 525.51,286.88 527.52,291.69 C528.29,293.54 530.33,295.82 532.06,296.77 C539.86,301.07 540.24,301.67 539.82,309.12 C539.36,317.23 536.93,321.37 532.40,321.73 C523.19,322.46 510.13,324.30 508.94,325.04 C507.82,325.73 508.18,327.43 510.91,334.19 C512.75,338.76 514.57,342.85 514.96,343.28 C515.34,343.70 520.79,342.74 527.08,341.13 C544.33,336.71 555.08,335.56 579.00,335.60 C608.66,335.65 637.02,339.75 660.32,347.37 L 670.50 350.69 L 676.61 348.44 C679.98,347.21 684.15,345.45 685.90,344.55 ZM 791.55 282.90 C801.67,276.54 805.00,271.49 805.00,262.47 C805.00,257.13 804.89,256.90 802.75,257.51 C798.47,258.74 792.49,263.57 789.50,268.22 C787.85,270.79 786.27,272.92 786.00,272.95 C785.72,272.98 784.45,271.02 783.17,268.61 C779.34,261.40 775.79,258.64 770.25,258.56 L 765.50 258.50 L 765.20 263.70 C764.81,270.36 766.69,274.00 772.58,278.06 C777.60,281.51 785.18,285.97 786.05,285.99 C786.36,285.99 788.83,284.60 791.55,282.90 ZM 500.00 269.31 C500.00,263.58 504.76,243.95 509.61,229.68 C530.98,166.82 577.91,118.46 637.79,97.62 C675.18,84.61 715.38,85.11 757.19,99.12 C768.56,102.93 786.62,110.59 790.15,113.11 C792.96,115.10 795.00,115.55 795.00,114.17 C795.00,113.04 781.14,104.35 772.00,99.75 C707.33,67.18 630.73,73.35 573.50,115.76 C554.66,129.72 534.90,151.95 523.20,172.34 C512.66,190.74 504.02,214.47 500.45,234.91 C498.42,246.54 497.25,274.58 498.84,273.60 C499.48,273.21 500.00,271.28 500.00,269.31 ZM 850.14 262.37 C858.13,256.95 860.03,255.00 862.62,249.50 C865.04,244.37 865.75,236.74 864.06,234.06 C861.77,230.44 847.81,241.43 844.43,249.52 C843.63,251.43 842.78,253.00 842.54,253.00 C842.30,253.00 840.71,250.08 839.01,246.52 C835.27,238.68 830.84,234.96 824.39,234.23 C819.00,233.63 818.04,234.58 818.02,240.50 C818.01,246.49 819.66,251.31 822.74,254.23 C826.89,258.16 840.10,266.00 842.59,266.00 C843.79,266.00 847.19,264.37 850.14,262.37 ZM 790.84 257.01 C799.52,248.33 798.94,228.32 789.71,218.25 C786.88,215.16 784.66,215.43 781.43,219.25 C776.52,225.06 774.60,230.70 774.56,239.50 C774.51,248.11 775.87,251.98 780.80,257.25 C784.12,260.80 787.12,260.73 790.84,257.01 ZM 848.49 232.67 C858.25,222.48 857.76,202.14 847.42,188.60 C845.49,186.07 843.51,184.00 843.02,184.00 C842.53,184.00 840.48,185.69 838.47,187.75 C826.77,199.75 825.75,221.44 836.36,232.52 C838.72,234.98 841.49,237.00 842.50,237.00 C843.51,237.00 846.21,235.05 848.49,232.67 ZM 560.24 613.00 C561.43,609.70 562.70,607.34 563.07,607.75 C563.64,608.39 567.00,617.74 567.00,618.68 C567.00,618.86 564.99,619.00 562.54,619.00 L 558.08 619.00 L 560.24 613.00 ZM 743.00 615.50 L 743.00 606.00 L 747.93 606.00 C754.20,606.00 757.00,608.98 757.00,615.68 C757.00,621.84 753.79,625.00 747.55,625.00 L 743.00 625.00 L 743.00 615.50 ZM 792.58 616.75 C792.97,615.52 794.04,612.75 794.95,610.60 L 796.61 606.70 L 798.80 612.44 C800.01,615.60 801.00,618.36 801.00,618.59 C801.00,618.82 798.94,619.00 796.43,619.00 C792.15,619.00 791.91,618.86 792.58,616.75 ZM 613.30 533.04 C606.16,528.69 604.89,518.17 610.86,512.84 C616.93,507.41 624.24,508.26 628.71,514.90 C632.93,521.16 630.72,530.03 624.09,533.45 C620.11,535.51 617.17,535.40 613.30,533.04 ZM 913.37 533.08 C908.86,530.33 907.00,527.16 907.00,522.23 C907.00,516.45 909.14,512.64 913.55,510.54 C920.12,507.43 927.74,510.66 930.01,517.52 C932.01,523.59 929.28,530.77 923.90,533.55 C920.13,535.50 917.12,535.37 913.37,533.08 ZM 722.87 535.32 C718.83,532.81 717.00,528.86 717.00,522.63 C717.00,517.84 717.43,516.58 720.10,513.53 C722.94,510.30 723.67,510.00 728.65,510.00 C735.14,510.00 738.23,512.42 739.96,518.85 C743.17,530.79 732.36,541.21 722.87,535.32 ZM 845.71 516.37 C844.75,515.42 847.77,510.19 849.94,509.03 C851.00,508.46 853.73,508.00 856.00,508.00 C858.27,508.00 861.00,508.46 862.06,509.03 C864.23,510.19 867.25,515.42 866.29,516.37 C865.95,516.72 861.32,517.00 856.00,517.00 C850.68,517.00 846.05,516.72 845.71,516.37 ZM 979.19 534.97 C971.64,530.37 971.01,516.61 978.12,511.63 C981.75,509.08 990.14,509.44 992.70,512.25 C995.89,515.75 997.00,518.52 997.00,522.98 C997.00,533.87 987.68,540.15 979.19,534.97 ZM 1134.42 536.03 C1133.27,535.57 1131.14,533.76 1129.67,532.02 C1127.42,529.35 1127.00,527.89 1127.00,522.82 C1127.00,517.31 1127.29,516.51 1130.40,513.40 C1133.30,510.50 1134.49,510.00 1138.47,510.00 C1144.60,510.00 1146.78,511.30 1149.06,516.33 C1151.45,521.58 1151.45,524.42 1149.06,529.68 C1146.29,535.79 1140.27,538.40 1134.42,536.03 ZM 650.01 329.69 C646.20,328.39 645.46,326.67 646.45,321.40 C647.28,316.98 648.42,317.10 650.31,321.81 C651.14,323.90 652.54,326.21 653.41,326.93 C655.03,328.27 655.61,331.05 654.25,330.94 C653.84,330.91 651.93,330.35 650.01,329.69 ZM 632.26 325.99 C623.81,324.75 624.00,324.97 624.00,316.53 C624.00,308.58 624.88,307.35 627.59,311.50 C629.57,314.52 631.01,314.69 631.71,312.00 C632.28,309.81 635.00,309.40 638.07,311.04 C639.71,311.92 640.00,313.18 640.00,319.54 C640.00,324.91 639.65,326.97 638.75,326.88 C638.06,326.81 635.14,326.41 632.26,325.99 ZM 548.01 317.27 C548.02,312.71 550.05,301.57 551.05,300.56 C551.63,299.97 555.33,300.09 560.93,300.88 C569.34,302.07 570.14,302.02 574.19,300.10 C576.56,298.97 579.23,297.52 580.11,296.87 C584.65,293.54 588.22,300.48 587.79,311.82 L 587.50 319.50 L 567.75 319.77 L 548.00 320.04 L 548.01 317.27 ZM 542.00 317.19 C542.00,313.67 543.96,309.56 545.09,310.69 C546.35,311.95 545.30,316.50 543.40,318.08 C542.28,319.02 542.00,318.84 542.00,317.19 ZM 594.59 296.74 C594.15,295.23 594.15,292.30 594.60,290.24 L 595.42 286.50 L 595.77 289.75 C595.97,291.54 595.97,294.46 595.77,296.25 L 595.41 299.50 L 594.59 296.74 Z" fill="rgb(254,254,254)"/>
</g>
</svg>